<svg width="342" height="342" viewBox="0 0 342 342" fill="none" xmlns="http://www.w3.org/2000/svg">
<path d="M130.608 30.8635C130.608 39.8416 130.012 46.8245 129.12 47.3946C128.227 47.9646 128.078 49.2472 128.971 50.6723C130.012 52.5249 128.971 55.3751 124.954 61.6455C121.979 66.3483 118.706 70.7661 117.664 71.6211C115.581 73.3312 112.755 108.246 112.755 133.898C112.755 147.721 112.308 151.426 110.523 152.709C108.44 154.134 107.994 164.822 107.25 238.784L106.357 323.15H94.6043C87.9095 323.15 83 323.72 83 324.575C83 325.572 116.325 326 179.852 326C243.973 326 276.257 325.572 275.662 324.575C275.216 323.862 270.157 323.15 264.355 323.15H254.09V263.438C254.09 225.104 253.495 203.3 252.602 202.73C251.709 202.16 251.114 192.326 251.114 177.648C251.114 162.542 250.519 153.564 249.627 153.564C248.734 153.564 248.139 145.298 248.139 131.617C248.139 119.504 247.544 109.244 246.949 108.816C246.205 108.388 245.163 100.408 244.717 91.1449L243.824 74.0438L236.981 63.9256C231.922 56.3726 230.435 53.0949 231.179 50.3873C231.625 48.5346 231.327 46.5395 230.435 46.112C229.393 45.3994 228.798 39.2715 228.798 30.0084C228.798 21.6004 228.352 15.1875 227.906 15.7575C227.31 16.185 227.013 23.0255 227.162 30.8635C227.31 39.9841 226.864 45.3994 225.823 45.9695C224.93 46.5395 224.484 48.6771 225.079 50.6723C225.674 53.665 224.335 56.8002 219.128 64.3532L212.284 74.1863L211.54 90.0048C211.094 98.6979 210.35 106.821 210.053 107.961C209.606 109.101 209.309 119.504 209.309 131.047C209.309 147.864 208.863 151.996 207.077 152.709C205.441 153.279 204.994 157.839 204.994 177.648C204.994 192.184 204.399 202.16 203.507 202.73C202.763 203.157 202.019 208.715 202.019 214.985V226.244H180H157.833L156.941 208.857C156.345 199.452 155.899 183.063 155.899 172.518C155.899 156.842 155.453 153.279 153.668 152.709C151.882 151.996 151.436 148.434 151.436 133.755C151.436 104.541 148.758 73.3312 146.229 71.4786C145.039 70.6236 143.997 69.4835 143.997 68.9134C143.997 68.3434 141.617 64.6382 138.939 60.6479C134.922 55.0901 134.029 52.8099 135.22 50.8148C136.112 49.2472 135.963 47.9646 135.071 47.3946C134.178 46.8245 133.583 39.8416 133.583 30.8635C133.583 21.4579 132.988 15.33 132.095 15.33C131.203 15.33 130.608 21.4579 130.608 30.8635ZM135.517 60.9329L138.195 65.2082H132.095H125.996L128.674 60.9329C130.012 58.5103 131.649 56.6577 132.095 56.6577C132.542 56.6577 134.178 58.5103 135.517 60.9329ZM233.261 64.0681C233.261 64.7807 230.881 65.2082 228.054 65.2082C222.103 65.2082 221.955 64.9232 225.376 60.0779L227.906 56.3726L230.583 59.7929C231.922 61.503 233.261 63.4981 233.261 64.0681ZM140.278 69.4835C140.873 70.481 138.046 70.9086 132.244 70.7661C127.186 70.6236 123.169 69.911 123.169 69.341C123.169 67.4884 139.236 67.7734 140.278 69.4835ZM236.981 69.4835C237.576 70.3385 234.303 70.9086 228.054 70.9086C221.806 70.9086 218.533 70.3385 219.128 69.4835C219.574 68.6284 223.591 68.0584 228.054 68.0584C232.518 68.0584 236.534 68.6284 236.981 69.4835ZM124.21 80.4567C123.764 81.8818 123.466 80.7417 123.466 78.034C123.466 75.3264 123.764 74.1863 124.21 75.4689C124.508 76.894 124.508 79.1741 124.21 80.4567ZM134.476 78.034C134.476 81.5968 133.881 82.3093 131.054 82.3093C128.376 82.3093 127.632 81.5968 127.632 78.6041C127.632 76.6089 128.227 75.3264 129.12 75.8964C130.012 76.3239 130.608 76.0389 130.608 75.3264C130.608 74.4713 131.5 73.7588 132.542 73.7588C133.732 73.7588 134.476 75.4689 134.476 78.034ZM140.575 80.4567C139.98 82.8793 139.98 82.8793 138.79 80.4567C138.195 79.1741 138.195 76.894 138.79 75.4689C139.98 73.1887 139.98 73.1887 140.575 75.4689C141.022 76.894 141.022 79.1741 140.575 80.4567ZM221.36 78.034C221.36 80.3142 220.764 82.3093 219.872 82.3093C218.235 82.3093 217.789 76.1814 219.425 74.7563C221.062 73.0462 221.36 73.6162 221.36 78.034ZM229.691 75.0413C229.096 75.7539 229.691 76.7514 230.583 77.179C232.071 77.8915 232.071 78.1765 230.435 78.8891C228.798 79.6016 228.798 80.0292 230.435 81.0267C231.922 81.8818 231.327 82.3093 228.501 82.3093C225.079 82.3093 224.335 81.7393 224.335 78.6041C224.335 76.6089 224.93 75.3264 225.823 75.8964C226.715 76.3239 227.31 76.0389 227.31 75.3264C227.31 74.4713 228.054 73.7588 228.947 73.7588C229.691 73.7588 230.137 74.3288 229.691 75.0413ZM237.725 78.034C237.725 79.4591 237.13 81.1692 236.237 81.5968C235.344 82.1668 234.749 80.5992 234.749 78.034C234.749 75.4689 235.344 73.9013 236.237 74.4713C237.13 74.8988 237.725 76.6089 237.725 78.034ZM119.747 80.4567C119.301 81.8818 119.003 81.0267 119.003 78.7466C119.003 76.3239 119.301 75.3264 119.747 76.1814C120.045 77.179 120.045 79.1741 119.747 80.4567ZM145.039 80.4567C144.592 81.8818 144.295 81.0267 144.295 78.7466C144.295 76.3239 144.592 75.3264 145.039 76.1814C145.336 77.179 145.336 79.1741 145.039 80.4567ZM124.657 85.7295C124.657 86.1571 124.062 86.8696 123.169 87.2971C122.425 87.7247 121.681 87.4396 121.681 86.7271C121.681 85.872 122.425 85.1595 123.169 85.1595C124.062 85.1595 124.657 85.4445 124.657 85.7295ZM136.559 95.8477V106.536H132.095H127.632V95.8477V85.1595H132.095H136.559V95.8477ZM142.212 88.7222C142.212 90.7173 141.617 92.2849 140.873 92.2849C140.129 92.2849 139.683 90.7173 139.832 88.7222C139.98 86.7271 140.575 85.1595 141.171 85.1595C141.766 85.1595 142.212 86.7271 142.212 88.7222ZM219.872 88.7222C219.872 90.7173 219.277 92.2849 218.384 92.2849C217.194 92.2849 217.194 89.0072 218.235 85.4445C218.83 83.7344 219.872 85.872 219.872 88.7222ZM232.964 95.4202L232.518 105.823H228.054H223.591L223.145 95.4202L222.698 85.1595H228.054H233.41L232.964 95.4202ZM239.064 91.1449C239.212 91.8574 238.617 92.2849 237.725 92.2849C236.981 92.2849 236.237 90.5748 236.386 88.2947C236.386 84.8745 236.534 84.732 237.725 87.2971C238.469 88.8647 239.064 90.5748 239.064 91.1449ZM124.657 90.8599C124.657 91.5724 124.062 92.2849 123.169 92.2849C122.425 92.2849 121.681 91.5724 121.681 90.8599C121.681 90.0048 122.425 89.4348 123.169 89.4348C124.062 89.4348 124.657 90.0048 124.657 90.8599ZM124.657 94.9926C124.657 95.8477 124.062 96.8452 123.169 97.2728C122.425 97.7003 121.681 97.1303 121.681 95.9902C121.681 94.7076 122.425 93.71 123.169 93.71C124.062 93.71 124.657 94.2801 124.657 94.9926ZM142.212 97.9853C142.063 100.265 141.468 102.261 140.724 102.261C140.129 102.261 139.534 100.265 139.534 97.9853C139.534 95.5627 140.129 93.71 140.873 93.71C141.617 93.71 142.212 95.5627 142.212 97.9853ZM219.872 95.8477C219.872 96.9878 219.277 97.9853 218.384 97.9853C217.64 97.9853 216.896 96.9878 216.896 95.8477C216.896 94.7076 217.64 93.71 218.384 93.71C219.277 93.71 219.872 94.7076 219.872 95.8477ZM239.212 94.9926C239.212 95.8477 238.617 96.8452 237.725 97.2728C236.981 97.7003 236.237 97.1303 236.237 95.9902C236.237 94.7076 236.981 93.71 237.725 93.71C238.617 93.71 239.212 94.2801 239.212 94.9926ZM124.657 100.835C124.657 101.548 124.062 102.261 123.169 102.261C122.425 102.261 121.681 101.548 121.681 100.835C121.681 99.9804 122.425 99.4104 123.169 99.4104C124.062 99.4104 124.657 99.9804 124.657 100.835ZM219.872 100.835C219.872 101.548 219.277 102.261 218.384 102.261C217.64 102.261 216.896 101.548 216.896 100.835C216.896 99.9804 217.64 99.4104 218.384 99.4104C219.277 99.4104 219.872 99.9804 219.872 100.835ZM239.212 100.835C239.212 101.548 238.617 102.261 237.725 102.261C236.981 102.261 236.237 101.548 236.237 100.835C236.237 99.9804 236.981 99.4104 237.725 99.4104C238.617 99.4104 239.212 99.9804 239.212 100.835ZM124.657 104.256C124.657 104.683 124.062 105.396 123.169 105.823C122.425 106.251 121.681 105.966 121.681 105.253C121.681 104.398 122.425 103.686 123.169 103.686C124.062 103.686 124.657 103.971 124.657 104.256ZM142.509 105.111C142.509 105.823 142.212 106.536 141.914 106.536C141.468 106.536 140.724 105.823 140.278 105.111C139.832 104.256 140.129 103.686 140.873 103.686C141.766 103.686 142.509 104.256 142.509 105.111ZM219.872 105.111C219.872 105.823 219.277 106.536 218.384 106.536C217.64 106.536 216.896 105.823 216.896 105.111C216.896 104.256 217.64 103.686 218.384 103.686C219.277 103.686 219.872 104.256 219.872 105.111ZM239.212 105.111C239.212 105.823 238.617 106.536 237.725 106.536C236.981 106.536 236.237 105.823 236.237 105.111C236.237 104.256 236.981 103.686 237.725 103.686C238.617 103.686 239.212 104.256 239.212 105.111ZM233.261 129.622C233.261 148.291 232.964 150.571 230.732 150.999C229.245 151.284 226.864 151.284 225.525 150.999C223.145 150.429 222.847 148.149 222.847 129.48V108.674H228.054H233.261V129.622ZM123.169 118.649C123.169 125.062 122.574 127.912 121.384 128.055C119.896 128.055 119.896 128.34 121.384 128.91C124.062 129.907 123.764 139.313 120.937 139.313C118.259 139.313 117.962 135.038 120.64 134.895C122.127 134.895 122.127 134.61 120.64 134.04C119.598 133.755 118.706 131.617 118.706 129.337C118.706 127.057 119.598 124.92 120.64 124.635C121.979 124.064 121.83 123.494 120.193 122.212C118.557 120.929 118.408 120.359 119.896 119.789C120.789 119.504 121.681 118.507 121.681 117.794C121.681 116.939 121.086 116.797 120.193 117.224C119.45 117.652 118.706 117.082 118.706 115.941C118.706 114.659 119.598 113.661 120.64 113.519C121.979 113.519 121.979 113.234 120.491 112.664C118.557 111.951 119.45 109.386 121.83 109.386C122.574 109.386 123.169 113.519 123.169 118.649ZM138.046 129.907C138.046 149.146 137.897 150.429 135.071 151.141C133.434 151.569 130.756 151.569 129.12 151.141C126.293 150.429 126.144 149.146 126.144 129.907V109.386H132.095H138.046V129.907ZM144.741 110.811C145.187 111.524 144.741 112.236 143.7 112.379C142.212 112.379 142.212 112.664 143.7 113.234C144.89 113.661 145.485 117.794 145.485 126.63C145.485 136.89 145.039 139.313 143.253 139.313C140.575 139.313 140.278 135.038 142.956 134.895C144.444 134.895 144.444 134.61 142.956 134.04C141.914 133.755 141.022 132.473 141.022 131.332C141.022 130.192 141.914 129.337 142.956 129.195C144.444 129.195 144.444 128.91 142.956 128.34C141.617 127.912 141.022 124.492 141.022 118.507C141.022 110.099 142.361 107.248 144.741 110.811ZM219.128 110.811C218.682 111.524 217.64 112.236 216.748 112.236C216.004 112.236 215.409 111.524 215.409 110.811C215.409 109.956 216.45 109.386 217.789 109.386C218.979 109.386 219.574 109.956 219.128 110.811ZM240.7 110.954C240.7 111.666 240.105 111.951 239.212 111.524C238.469 111.096 237.725 111.381 237.725 112.094C237.725 112.949 238.469 113.661 239.212 113.661C241.444 113.661 241.146 127.912 238.915 128.055C237.427 128.055 237.427 128.34 238.915 128.91C239.807 129.195 240.7 130.477 240.7 131.617C240.7 132.758 239.807 133.613 238.915 133.755C237.427 133.755 237.427 134.04 238.915 134.61C239.807 134.895 240.7 136.178 240.7 137.318C240.7 138.458 239.807 139.313 238.915 139.455C237.427 139.455 237.427 139.741 238.915 140.311C239.807 140.596 240.7 141.878 240.7 143.018C240.7 144.158 239.807 145.013 238.915 145.156C237.427 145.156 237.427 145.441 238.915 146.011C239.807 146.296 240.7 147.579 240.7 148.861C240.7 150.001 239.807 150.714 238.915 150.429C237.427 150.001 236.832 144.158 236.534 129.622C236.237 112.236 236.534 109.386 238.469 109.386C239.659 109.386 240.7 110.099 240.7 110.954ZM244.717 141.736C244.568 147.864 244.271 143.161 244.271 131.475C244.271 119.647 244.568 114.659 244.717 120.359C245.015 126.06 245.015 135.608 244.717 141.736ZM218.235 116.654C216.896 117.367 216.004 117.224 215.557 116.369C215.26 115.514 216.004 114.231 217.045 113.519C218.384 112.806 219.277 112.949 219.723 113.804C220.021 114.659 219.277 115.941 218.235 116.654ZM219.872 120.074C219.872 121.214 218.83 122.212 217.64 122.212C215.26 122.212 214.665 120.502 216.45 118.934C218.087 117.224 219.872 117.794 219.872 120.074ZM219.872 125.775C219.872 126.915 218.83 127.912 217.64 127.912C215.26 127.912 214.665 126.202 216.45 124.635C218.087 122.924 219.872 123.494 219.872 125.775ZM219.872 131.475C219.872 132.615 218.83 133.613 217.64 133.613C216.45 133.613 215.409 132.615 215.409 131.475C215.409 130.335 216.45 129.337 217.64 129.337C218.83 129.337 219.872 130.335 219.872 131.475ZM219.872 137.175C219.872 138.315 218.83 139.313 217.64 139.313C216.45 139.313 215.409 138.315 215.409 137.175C215.409 136.035 216.45 135.038 217.64 135.038C218.83 135.038 219.872 136.035 219.872 137.175ZM123.169 145.726C123.169 149.146 122.425 150.714 120.937 150.714C118.259 150.714 117.962 146.438 120.64 146.296C122.127 146.296 122.127 146.011 120.64 145.441C117.962 144.443 118.259 140.738 120.937 140.738C122.425 140.738 123.169 142.306 123.169 145.726ZM145.485 142.876C145.485 144.016 144.444 145.013 143.253 145.013C142.063 145.013 141.022 144.016 141.022 142.876C141.022 141.736 142.063 140.738 143.253 140.738C144.444 140.738 145.485 141.736 145.485 142.876ZM219.872 142.876C219.872 144.016 218.83 145.013 217.64 145.013C216.45 145.013 215.409 144.016 215.409 142.876C215.409 141.736 216.45 140.738 217.64 140.738C218.83 140.738 219.872 141.736 219.872 142.876ZM145.485 148.576C145.485 149.716 144.444 150.714 143.253 150.714C142.063 150.714 141.022 149.716 141.022 148.576C141.022 147.436 142.063 146.438 143.253 146.438C144.444 146.438 145.485 147.436 145.485 148.576ZM219.574 148.149C218.682 150.714 215.409 151.141 215.409 148.719C215.409 147.436 216.45 146.438 217.789 146.438C219.128 146.438 219.872 147.151 219.574 148.149ZM121.681 176.935C121.681 199.024 121.532 200.307 118.706 201.019C115.879 201.732 115.73 201.019 115.73 178.503C115.73 157.554 116.028 155.131 118.408 154.561C119.747 154.134 121.086 153.849 121.384 153.706C121.532 153.706 121.681 164.11 121.681 176.935ZM139.534 177.22V200.592H132.095H124.657V177.22V153.849H132.095H139.534V177.22ZM146.08 154.419C148.163 155.131 148.46 158.552 148.46 177.933C148.46 199.594 148.312 200.592 145.485 200.592C142.658 200.592 142.509 199.594 142.509 177.078C142.509 164.11 142.807 153.564 143.105 153.564C143.402 153.564 144.741 153.991 146.08 154.419ZM218.384 177.078C218.384 197.599 218.235 199.167 215.409 200.592C212.433 202.16 212.433 201.732 212.433 178.646C212.433 155.844 213.177 152.281 217.343 154.561C217.938 154.846 218.384 165.107 218.384 177.078ZM234.749 177.363V200.592H228.054H221.36V177.363V153.991H228.054H234.749V177.363ZM241.295 154.419C243.378 155.131 243.676 158.694 243.676 178.646C243.676 201.732 243.676 202.16 240.7 200.592C237.873 199.167 237.725 197.599 237.725 176.365C237.725 163.825 238.022 153.564 238.32 153.564C238.617 153.564 239.956 153.991 241.295 154.419ZM112.308 190.901C112.16 197.457 111.862 192.184 111.862 179.216C111.862 166.247 112.16 160.974 112.308 167.387C112.606 173.943 112.606 184.488 112.308 190.901ZM152.477 190.901C152.329 197.457 152.031 192.184 152.031 179.216C152.031 166.247 152.329 160.974 152.477 167.387C152.775 173.943 152.775 184.488 152.477 190.901ZM209.011 190.901C208.863 197.457 208.565 192.184 208.565 179.216C208.565 166.247 208.863 160.974 209.011 167.387C209.309 173.943 209.309 184.488 209.011 190.901ZM247.692 190.901C247.544 197.457 247.246 192.184 247.246 179.216C247.246 166.247 247.544 160.974 247.692 167.387C247.99 173.943 247.99 184.488 247.692 190.901ZM120.193 263.296C120.193 322.152 120.193 323.15 117.218 323.15C114.242 323.15 114.242 322.152 114.242 264.151C114.242 204.867 114.242 204.012 119.152 203.585C119.747 203.442 120.193 230.376 120.193 263.296ZM141.022 263.296V323.15H132.095H123.169V263.296V203.442H132.095H141.022V263.296ZM147.568 204.297C149.651 205.01 149.948 211.708 149.948 264.151C149.948 322.152 149.948 323.15 146.973 323.15C143.997 323.15 143.997 322.152 143.997 263.296C143.997 230.376 144.295 203.442 144.592 203.442C144.89 203.442 146.229 203.87 147.568 204.297ZM216.896 263.296V323.15H213.177H209.458V264.151C209.458 201.019 209.011 204.582 215.855 203.585C216.45 203.585 216.896 230.376 216.896 263.296ZM236.237 263.296V323.15H228.054H219.872V263.296V203.442H228.054H236.237V263.296ZM245.312 204.867C246.056 204.867 246.651 229.094 246.651 264.009V323.15H242.932H239.212V263.153C239.212 209 239.51 203.157 241.593 204.012C242.932 204.44 244.568 204.867 245.312 204.867ZM111.267 264.721C111.267 302.771 110.821 323.15 109.779 323.15C108.738 323.15 108.292 302.771 108.292 264.721C108.292 226.671 108.738 206.292 109.779 206.292C110.821 206.292 111.267 226.671 111.267 264.721ZM155.899 264.721C155.899 302.771 155.453 323.15 154.411 323.15C153.37 323.15 152.924 302.771 152.924 264.721C152.924 226.671 153.37 206.292 154.411 206.292C155.453 206.292 155.899 226.671 155.899 264.721ZM206.036 294.363C205.887 310.609 205.738 297.213 205.738 264.721C205.738 232.229 205.887 218.833 206.036 235.222C206.333 251.468 206.333 277.974 206.036 294.363ZM250.668 294.363C250.519 310.609 250.37 297.213 250.37 264.721C250.37 232.229 250.519 218.833 250.668 235.222C250.965 251.468 250.965 277.974 250.668 294.363ZM201.275 232.656C201.275 235.364 200.085 235.507 180.596 235.934C159.618 236.362 156.197 235.649 157.833 231.231C158.726 229.379 161.701 229.094 180 229.379C200.085 229.806 201.275 229.949 201.275 232.656ZM175.24 239.924C175.24 241.35 159.618 261.871 158.577 261.871C157.833 261.871 157.387 256.741 157.387 250.47V239.069H166.313C171.223 239.069 175.24 239.497 175.24 239.924ZM202.019 251.468C202.019 258.736 201.424 263.296 200.68 262.441C198.448 260.161 184.166 240.494 184.166 239.782C184.166 239.354 188.183 239.069 193.093 239.069H202.019V251.468ZM191.605 255.458L202.019 269.709V287.95V306.191L180.149 305.764L158.131 305.336L157.684 287.523L157.387 269.709L168.099 255.03C174.049 247.05 179.257 240.637 180 240.78C180.596 241.065 185.803 247.62 191.605 255.458ZM190.563 309.896C184.612 310.181 174.793 310.181 168.991 309.896C163.04 309.754 167.801 309.469 179.703 309.469C191.605 309.469 196.366 309.754 190.563 309.896ZM202.019 318.162V323.15H179.703H157.387V318.162V313.174H179.703H202.019V318.162Z" fill="white"/>
<path d="M228.799 93.8541C228.799 94.5666 229.543 94.8517 230.287 94.4241C231.179 93.9966 231.774 93.2841 231.774 92.8565C231.774 92.5715 231.179 92.2865 230.287 92.2865C229.543 92.2865 228.799 92.999 228.799 93.8541Z" fill="white"/>
<path d="M225.079 103.692C225.525 104.405 226.269 105.117 226.715 105.117C227.013 105.117 227.31 104.405 227.31 103.692C227.31 102.837 226.567 102.267 225.674 102.267C224.93 102.267 224.633 102.837 225.079 103.692Z" fill="white"/>
<path d="M224.335 112.239C224.335 112.952 225.079 113.664 225.971 113.664C226.715 113.664 227.013 112.952 226.567 112.239C226.12 111.384 225.376 110.814 224.93 110.814C224.633 110.814 224.335 111.384 224.335 112.239Z" fill="white"/>
<path d="M229.542 112.239C229.095 112.952 229.393 113.664 230.137 113.664C231.029 113.664 231.773 112.952 231.773 112.239C231.773 111.384 231.476 110.814 231.178 110.814C230.732 110.814 229.988 111.384 229.542 112.239Z" fill="white"/>
<path d="M224.335 117.934C224.335 118.647 225.079 119.359 225.971 119.359C226.715 119.359 227.013 118.647 226.567 117.934C226.12 117.079 225.376 116.509 224.93 116.509C224.633 116.509 224.335 117.079 224.335 117.934Z" fill="white"/>
<path d="M229.542 117.934C229.095 118.647 229.393 119.359 230.137 119.359C231.029 119.359 231.773 118.647 231.773 117.934C231.773 117.079 231.476 116.509 231.178 116.509C230.732 116.509 229.988 117.079 229.542 117.934Z" fill="white"/>
<path d="M229.542 123.637C229.095 124.35 229.393 125.062 230.137 125.062C231.029 125.062 231.773 124.35 231.773 123.637C231.773 122.782 231.476 122.212 231.178 122.212C230.732 122.212 229.988 122.782 229.542 123.637Z" fill="white"/>
<path d="M229.542 129.341C229.095 130.053 229.393 130.766 230.137 130.766C231.029 130.766 231.773 130.053 231.773 129.341C231.773 128.485 231.476 127.915 231.178 127.915C230.732 127.915 229.988 128.485 229.542 129.341Z" fill="white"/>
<path d="M128.376 112.239C128.822 112.952 129.566 113.664 130.012 113.664C130.31 113.664 130.607 112.952 130.607 112.239C130.607 111.384 129.863 110.814 128.971 110.814C128.227 110.814 127.929 111.384 128.376 112.239Z" fill="white"/>
<path d="M128.376 117.934C128.822 118.647 129.566 119.359 130.012 119.359C130.31 119.359 130.607 118.647 130.607 117.934C130.607 117.079 129.863 116.509 128.971 116.509C128.227 116.509 127.929 117.079 128.376 117.934Z" fill="white"/>
<path d="M133.583 118.081C133.583 118.793 134.327 119.078 135.071 118.651C135.963 118.223 136.558 117.511 136.558 117.083C136.558 116.798 135.963 116.513 135.071 116.513C134.327 116.513 133.583 117.226 133.583 118.081Z" fill="white"/>
<path d="M128.376 123.637C128.822 124.35 129.566 125.062 130.012 125.062C130.31 125.062 130.607 124.35 130.607 123.637C130.607 122.782 129.863 122.212 128.971 122.212C128.227 122.212 127.929 122.782 128.376 123.637Z" fill="white"/>
<path d="M133.583 123.784C133.583 124.496 134.327 124.781 135.071 124.354C135.963 123.926 136.558 123.214 136.558 122.786C136.558 122.501 135.963 122.216 135.071 122.216C134.327 122.216 133.583 122.929 133.583 123.784Z" fill="white"/>
<path d="M128.376 129.341C128.822 130.053 129.566 130.766 130.012 130.766C130.31 130.766 130.607 130.053 130.607 129.341C130.607 128.485 129.863 127.915 128.971 127.915C128.227 127.915 127.929 128.485 128.376 129.341Z" fill="white"/>
<path d="M133.583 129.479C133.583 130.192 134.327 130.477 135.071 130.049C135.963 129.622 136.558 128.909 136.558 128.482C136.558 128.197 135.963 127.911 135.071 127.911C134.327 127.911 133.583 128.624 133.583 129.479Z" fill="white"/>
<path d="M128.376 135.036C128.822 135.748 129.566 136.461 130.012 136.461C130.31 136.461 130.607 135.748 130.607 135.036C130.607 134.181 129.863 133.611 128.971 133.611C128.227 133.611 127.929 134.181 128.376 135.036Z" fill="white"/>
<path d="M133.583 135.182C133.583 135.895 134.327 136.18 135.071 135.752C135.963 135.325 136.558 134.612 136.558 134.185C136.558 133.9 135.963 133.615 135.071 133.615C134.327 133.615 133.583 134.327 133.583 135.182Z" fill="white"/>
<path d="M133.583 140.885C133.583 141.598 134.327 141.883 135.071 141.455C135.963 141.028 136.558 140.315 136.558 139.888C136.558 139.603 135.963 139.318 135.071 139.318C134.327 139.318 133.583 140.03 133.583 140.885Z" fill="white"/>
<path d="M117.962 163.544C117.515 164.256 117.813 164.969 118.557 164.969C119.449 164.969 120.193 164.256 120.193 163.544C120.193 162.689 119.896 162.119 119.598 162.119C119.152 162.119 118.408 162.689 117.962 163.544Z" fill="white"/>
<path d="M117.962 176.372C117.515 177.084 117.813 177.797 118.557 177.797C119.449 177.797 120.193 177.084 120.193 176.372C120.193 175.517 119.896 174.947 119.598 174.947C119.152 174.947 118.408 175.517 117.962 176.372Z" fill="white"/>
<path d="M117.962 189.192C117.515 189.905 117.813 190.617 118.557 190.617C119.449 190.617 120.193 189.905 120.193 189.192C120.193 188.337 119.896 187.767 119.598 187.767C119.152 187.767 118.408 188.337 117.962 189.192Z" fill="white"/>
<path d="M126.145 156.983C126.145 157.268 127.186 157.838 128.376 158.409C129.566 158.836 130.608 158.551 130.608 157.838C130.608 156.983 129.566 156.413 128.376 156.413C127.186 156.413 126.145 156.698 126.145 156.983Z" fill="white"/>
<path d="M133.583 157.838C133.583 158.551 134.624 158.836 135.815 158.409C137.005 157.838 138.046 157.268 138.046 156.983C138.046 156.698 137.005 156.413 135.815 156.413C134.624 156.413 133.583 156.983 133.583 157.838Z" fill="white"/>
<path d="M126.888 163.544C127.335 164.256 128.525 164.969 129.269 164.969C130.161 164.969 130.31 164.256 129.864 163.544C129.417 162.689 128.227 162.119 127.483 162.119C126.591 162.119 126.442 162.689 126.888 163.544Z" fill="white"/>
<path d="M134.328 163.544C133.882 164.256 134.179 164.969 134.923 164.969C135.816 164.969 136.559 164.256 136.559 163.544C136.559 162.689 136.262 162.119 135.964 162.119C135.518 162.119 134.774 162.689 134.328 163.544Z" fill="white"/>
<path d="M126.145 169.812C126.145 170.097 127.186 170.667 128.376 171.237C129.566 171.664 130.608 171.379 130.608 170.667C130.608 169.812 129.566 169.241 128.376 169.241C127.186 169.241 126.145 169.527 126.145 169.812Z" fill="white"/>
<path d="M134.774 170.234C135.815 170.662 137.154 170.519 137.601 170.092C138.196 169.664 137.303 169.236 135.667 169.379C134.03 169.379 133.584 169.807 134.774 170.234Z" fill="white"/>
<path d="M127.632 176.372C127.632 177.084 128.376 177.797 129.268 177.797C130.012 177.797 130.31 177.084 129.863 176.372C129.417 175.517 128.673 174.947 128.227 174.947C127.929 174.947 127.632 175.517 127.632 176.372Z" fill="white"/>
<path d="M134.328 176.372C133.882 177.084 134.179 177.797 134.923 177.797C135.816 177.797 136.559 177.084 136.559 176.372C136.559 175.517 136.262 174.947 135.964 174.947C135.518 174.947 134.774 175.517 134.328 176.372Z" fill="white"/>
<path d="M126.145 182.64C126.145 182.925 127.186 183.495 128.376 184.065C129.566 184.492 130.608 184.207 130.608 183.495C130.608 182.64 129.566 182.07 128.376 182.07C127.186 182.07 126.145 182.355 126.145 182.64Z" fill="white"/>
<path d="M126.888 189.192C127.335 189.905 128.525 190.617 129.269 190.617C130.161 190.617 130.31 189.905 129.864 189.192C129.417 188.337 128.227 187.767 127.483 187.767C126.591 187.767 126.442 188.337 126.888 189.192Z" fill="white"/>
<path d="M134.328 189.192C133.882 189.905 134.179 190.617 134.923 190.617C135.816 190.617 136.559 189.905 136.559 189.192C136.559 188.337 136.262 187.767 135.964 187.767C135.518 187.767 134.774 188.337 134.328 189.192Z" fill="white"/>
<path d="M127.335 195.89C128.376 196.318 129.715 196.175 130.161 195.748C130.756 195.32 129.864 194.893 128.227 195.035C126.591 195.035 126.144 195.463 127.335 195.89Z" fill="white"/>
<path d="M134.774 195.89C135.815 196.318 137.154 196.175 137.601 195.748C138.196 195.32 137.303 194.893 135.667 195.035C134.03 195.035 133.584 195.463 134.774 195.89Z" fill="white"/>
<path d="M143.998 163.544C143.998 164.256 144.742 164.969 145.635 164.969C146.378 164.969 146.676 164.256 146.23 163.544C145.783 162.689 145.039 162.119 144.593 162.119C144.296 162.119 143.998 162.689 143.998 163.544Z" fill="white"/>
<path d="M143.998 176.372C143.998 177.084 144.742 177.797 145.635 177.797C146.378 177.797 146.676 177.084 146.23 176.372C145.783 175.517 145.039 174.947 144.593 174.947C144.296 174.947 143.998 175.517 143.998 176.372Z" fill="white"/>
<path d="M143.998 189.192C143.998 189.905 144.742 190.617 145.635 190.617C146.378 190.617 146.676 189.905 146.23 189.192C145.783 188.337 145.039 187.767 144.593 187.767C144.296 187.767 143.998 188.337 143.998 189.192Z" fill="white"/>
<path d="M222.847 163.544C222.847 164.399 223.888 164.969 225.078 164.969C226.268 164.969 227.31 164.684 227.31 164.399C227.31 164.114 226.268 163.544 225.078 162.974C223.888 162.546 222.847 162.831 222.847 163.544Z" fill="white"/>
<path d="M230.286 163.544C228.352 164.684 228.501 164.969 230.733 164.969C232.072 164.969 233.262 164.256 233.262 163.544C233.262 161.834 233.113 161.834 230.286 163.544Z" fill="white"/>
<path d="M229.989 170.234C231.03 170.662 232.369 170.519 232.816 170.092C233.411 169.664 232.518 169.236 230.881 169.379C229.245 169.379 228.799 169.807 229.989 170.234Z" fill="white"/>
<path d="M222.847 176.372C222.847 177.227 223.888 177.797 225.078 177.797C226.268 177.797 227.31 177.512 227.31 177.227C227.31 176.942 226.268 176.372 225.078 175.802C223.888 175.374 222.847 175.659 222.847 176.372Z" fill="white"/>
<path d="M230.286 176.372C228.352 177.512 228.501 177.797 230.733 177.797C232.072 177.797 233.262 177.084 233.262 176.372C233.262 174.662 233.113 174.662 230.286 176.372Z" fill="white"/>
<path d="M229.989 183.062C231.03 183.49 232.369 183.347 232.816 182.92C233.411 182.492 232.518 182.065 230.881 182.207C229.245 182.207 228.799 182.635 229.989 183.062Z" fill="white"/>
<path d="M222.847 189.192C222.847 190.047 223.888 190.617 225.078 190.617C226.268 190.617 227.31 190.332 227.31 190.047C227.31 189.762 226.268 189.192 225.078 188.622C223.888 188.195 222.847 188.48 222.847 189.192Z" fill="white"/>
<path d="M229.542 189.192C229.095 189.905 229.691 190.617 230.881 190.617C232.22 190.617 233.261 189.905 233.261 189.192C233.261 188.337 232.666 187.767 231.922 187.767C231.029 187.767 229.988 188.337 229.542 189.192Z" fill="white"/>
<path d="M229.989 195.89C231.03 196.318 232.369 196.175 232.816 195.748C233.411 195.32 232.518 194.893 230.881 195.035C229.245 195.035 228.799 195.463 229.989 195.89Z" fill="white"/>
<path d="M239.956 157.841C240.402 158.553 241.146 159.266 241.592 159.266C241.89 159.266 242.187 158.553 242.187 157.841C242.187 156.985 241.444 156.415 240.551 156.415C239.807 156.415 239.509 156.985 239.956 157.841Z" fill="white"/>
<path d="M239.956 183.489C240.402 184.202 241.146 184.914 241.592 184.914C241.89 184.914 242.187 184.202 242.187 183.489C242.187 182.634 241.444 182.064 240.551 182.064C239.807 182.064 239.509 182.634 239.956 183.489Z" fill="white"/>
<path d="M116.474 207.716C116.028 208.428 116.326 209.141 117.069 209.141C117.962 209.141 118.706 208.428 118.706 207.716C118.706 206.86 118.408 206.29 118.111 206.29C117.665 206.29 116.921 206.86 116.474 207.716Z" fill="white"/>
<path d="M115.729 214.979C115.729 215.692 116.473 215.977 117.217 215.549C118.11 215.122 118.705 214.409 118.705 213.982C118.705 213.697 118.11 213.411 117.217 213.411C116.473 213.411 115.729 214.124 115.729 214.979Z" fill="white"/>
<path d="M115.729 222.112C115.729 222.824 116.473 223.109 117.217 222.682C118.11 222.254 118.705 221.542 118.705 221.114C118.705 220.829 118.11 220.544 117.217 220.544C116.473 220.544 115.729 221.257 115.729 222.112Z" fill="white"/>
<path d="M116.474 249.051C116.028 249.764 116.326 250.477 117.069 250.477C117.962 250.477 118.706 249.764 118.706 249.051C118.706 248.196 118.408 247.626 118.111 247.626C117.665 247.626 116.921 248.196 116.474 249.051Z" fill="white"/>
<path d="M116.474 256.169C116.028 256.881 116.326 257.594 117.069 257.594C117.962 257.594 118.706 256.881 118.706 256.169C118.706 255.314 118.408 254.744 118.111 254.744C117.665 254.744 116.921 255.314 116.474 256.169Z" fill="white"/>
<path d="M116.474 263.294C116.028 264.006 116.326 264.719 117.069 264.719C117.962 264.719 118.706 264.006 118.706 263.294C118.706 262.439 118.408 261.869 118.111 261.869C117.665 261.869 116.921 262.439 116.474 263.294Z" fill="white"/>
<path d="M115.729 270.557C115.729 271.27 116.473 271.555 117.217 271.127C118.11 270.7 118.705 269.987 118.705 269.56C118.705 269.275 118.11 268.99 117.217 268.99C116.473 268.99 115.729 269.702 115.729 270.557Z" fill="white"/>
<path d="M115.729 277.69C115.729 278.403 116.473 278.688 117.217 278.26C118.11 277.833 118.705 277.12 118.705 276.692C118.705 276.407 118.11 276.122 117.217 276.122C116.473 276.122 115.729 276.835 115.729 277.69Z" fill="white"/>
<path d="M116.474 304.63C116.028 305.342 116.326 306.055 117.069 306.055C117.962 306.055 118.706 305.342 118.706 304.63C118.706 303.775 118.408 303.205 118.111 303.205C117.665 303.205 116.921 303.775 116.474 304.63Z" fill="white"/>
<path d="M115.729 311.747C115.729 312.459 116.473 313.172 117.217 313.172C118.11 313.172 118.705 312.459 118.705 311.747C118.705 310.892 118.11 310.322 117.217 310.322C116.473 310.322 115.729 310.892 115.729 311.747Z" fill="white"/>
<path d="M115.729 319.018C115.729 319.731 116.473 320.016 117.217 319.588C118.11 319.161 118.705 318.448 118.705 318.021C118.705 317.736 118.11 317.451 117.217 317.451C116.473 317.451 115.729 318.163 115.729 319.018Z" fill="white"/>
<path d="M126.888 207.716C127.335 208.428 128.525 209.141 129.269 209.141C130.161 209.141 130.31 208.428 129.864 207.716C129.417 206.86 128.227 206.29 127.483 206.29C126.591 206.29 126.442 206.86 126.888 207.716Z" fill="white"/>
<path d="M134.327 207.716C133.88 208.428 134.029 209.141 134.922 209.141C135.666 209.141 136.856 208.428 137.302 207.716C137.749 206.86 137.6 206.29 136.707 206.29C135.963 206.29 134.773 206.86 134.327 207.716Z" fill="white"/>
<path d="M126.145 213.983C126.145 214.268 127.186 214.838 128.376 215.409C129.566 215.836 130.608 215.551 130.608 214.838C130.608 213.983 129.566 213.413 128.376 213.413C127.186 213.413 126.145 213.698 126.145 213.983Z" fill="white"/>
<path d="M133.583 214.848C133.583 215.561 134.178 216.273 134.922 216.273C135.815 216.273 136.856 215.561 137.302 214.848C137.749 213.993 137.154 213.423 135.963 213.423C134.624 213.423 133.583 213.993 133.583 214.848Z" fill="white"/>
<path d="M127.335 221.539C128.376 221.966 129.715 221.824 130.161 221.396C130.756 220.969 129.864 220.541 128.227 220.684C126.591 220.684 126.144 221.111 127.335 221.539Z" fill="white"/>
<path d="M133.583 221.971C133.583 222.684 134.624 222.969 135.815 222.541C137.005 221.971 138.046 221.401 138.046 221.116C138.046 220.831 137.005 220.546 135.815 220.546C134.624 220.546 133.583 221.116 133.583 221.971Z" fill="white"/>
<path d="M127.335 228.664C128.376 229.091 129.715 228.949 130.161 228.521C130.756 228.094 129.864 227.666 128.227 227.809C126.591 227.809 126.144 228.236 127.335 228.664Z" fill="white"/>
<path d="M134.774 228.664C135.815 229.091 137.154 228.949 137.601 228.521C138.196 228.094 137.303 227.666 135.667 227.809C134.03 227.809 133.584 228.236 134.774 228.664Z" fill="white"/>
<path d="M126.145 234.794C126.145 235.649 127.186 236.219 128.376 236.219C129.566 236.219 130.608 235.934 130.608 235.649C130.608 235.364 129.566 234.794 128.376 234.224C127.186 233.796 126.145 234.081 126.145 234.794Z" fill="white"/>
<path d="M134.774 235.797C135.815 236.224 137.154 236.082 137.601 235.654C138.196 235.227 137.303 234.799 135.667 234.941C134.03 234.941 133.584 235.369 134.774 235.797Z" fill="white"/>
<path d="M126.145 241.919C126.145 242.774 127.186 243.344 128.376 243.344C129.566 243.344 130.608 243.059 130.608 242.774C130.608 242.489 129.566 241.919 128.376 241.349C127.186 240.921 126.145 241.206 126.145 241.919Z" fill="white"/>
<path d="M134.774 242.914C135.815 243.341 137.154 243.199 137.601 242.771C138.196 242.344 137.303 241.916 135.667 242.059C134.03 242.059 133.584 242.486 134.774 242.914Z" fill="white"/>
<path d="M126.145 249.051C126.145 249.907 127.186 250.477 128.376 250.477C129.566 250.477 130.608 250.192 130.608 249.907C130.608 249.622 129.566 249.051 128.376 248.481C127.186 248.054 126.145 248.339 126.145 249.051Z" fill="white"/>
<path d="M134.327 249.051C133.88 249.764 134.029 250.477 134.922 250.477C135.666 250.477 136.856 249.764 137.302 249.051C137.749 248.196 137.6 247.626 136.707 247.626C135.963 247.626 134.773 248.196 134.327 249.051Z" fill="white"/>
<path d="M126.888 256.169C127.335 256.881 128.525 257.594 129.269 257.594C130.161 257.594 130.31 256.881 129.864 256.169C129.417 255.314 128.227 254.744 127.483 254.744C126.591 254.744 126.442 255.314 126.888 256.169Z" fill="white"/>
<path d="M134.327 256.169C133.88 256.881 134.029 257.594 134.922 257.594C135.666 257.594 136.856 256.881 137.302 256.169C137.749 255.314 137.6 254.744 136.707 254.744C135.963 254.744 134.773 255.314 134.327 256.169Z" fill="white"/>
<path d="M126.888 263.294C127.335 264.006 128.525 264.719 129.269 264.719C130.161 264.719 130.31 264.006 129.864 263.294C129.417 262.439 128.227 261.869 127.483 261.869C126.591 261.869 126.442 262.439 126.888 263.294Z" fill="white"/>
<path d="M134.327 263.294C133.88 264.006 134.029 264.719 134.922 264.719C135.666 264.719 136.856 264.006 137.302 263.294C137.749 262.439 137.6 261.869 136.707 261.869C135.963 261.869 134.773 262.439 134.327 263.294Z" fill="white"/>
<path d="M127.335 270C128.376 270.427 129.715 270.285 130.161 269.857C130.756 269.43 129.864 269.002 128.227 269.145C126.591 269.145 126.144 269.572 127.335 270Z" fill="white"/>
<path d="M133.583 270.417C133.583 271.129 134.624 271.414 135.815 270.987C137.005 270.417 138.046 269.847 138.046 269.562C138.046 269.277 137.005 268.991 135.815 268.991C134.624 268.991 133.583 269.562 133.583 270.417Z" fill="white"/>
<path d="M127.335 277.117C128.376 277.544 129.715 277.402 130.161 276.974C130.756 276.547 129.864 276.119 128.227 276.262C126.591 276.262 126.144 276.689 127.335 277.117Z" fill="white"/>
<path d="M134.774 277.117C135.815 277.544 137.154 277.402 137.601 276.974C138.196 276.547 137.303 276.119 135.667 276.262C134.03 276.262 133.584 276.689 134.774 277.117Z" fill="white"/>
<path d="M127.335 284.242C128.376 284.669 129.715 284.527 130.161 284.099C130.756 283.672 129.864 283.244 128.227 283.387C126.591 283.387 126.144 283.814 127.335 284.242Z" fill="white"/>
<path d="M134.774 284.242C135.815 284.669 137.154 284.527 137.601 284.099C138.196 283.672 137.303 283.244 135.667 283.387C134.03 283.387 133.584 283.814 134.774 284.242Z" fill="white"/>
<path d="M126.145 290.372C126.145 291.227 127.186 291.797 128.376 291.797C129.566 291.797 130.608 291.512 130.608 291.227C130.608 290.942 129.566 290.372 128.376 289.802C127.186 289.374 126.145 289.659 126.145 290.372Z" fill="white"/>
<path d="M135.072 290.372C133.137 291.512 133.286 291.797 135.518 291.797C136.857 291.797 138.047 291.084 138.047 290.372C138.047 288.662 137.898 288.662 135.072 290.372Z" fill="white"/>
<path d="M126.145 297.497C126.145 298.352 127.186 298.922 128.376 298.922C129.566 298.922 130.608 298.637 130.608 298.352C130.608 298.067 129.566 297.497 128.376 296.927C127.186 296.499 126.145 296.784 126.145 297.497Z" fill="white"/>
<path d="M135.072 297.497C133.137 298.637 133.286 298.922 135.518 298.922C136.857 298.922 138.047 298.209 138.047 297.497C138.047 295.787 137.898 295.787 135.072 297.497Z" fill="white"/>
<path d="M126.888 304.63C127.335 305.342 128.525 306.055 129.269 306.055C130.161 306.055 130.31 305.342 129.864 304.63C129.417 303.775 128.227 303.205 127.483 303.205C126.591 303.205 126.442 303.775 126.888 304.63Z" fill="white"/>
<path d="M134.327 304.63C133.88 305.342 134.029 306.055 134.922 306.055C135.666 306.055 136.856 305.342 137.302 304.63C137.749 303.775 137.6 303.205 136.707 303.205C135.963 303.205 134.773 303.775 134.327 304.63Z" fill="white"/>
<path d="M126.888 311.747C127.335 312.459 128.525 313.172 129.269 313.172C130.161 313.172 130.31 312.459 129.864 311.747C129.417 310.892 128.227 310.322 127.483 310.322C126.591 310.322 126.442 310.892 126.888 311.747Z" fill="white"/>
<path d="M134.327 311.747C133.88 312.459 134.029 313.172 134.922 313.172C135.666 313.172 136.856 312.459 137.302 311.747C137.749 310.892 137.6 310.322 136.707 310.322C135.963 310.322 134.773 310.892 134.327 311.747Z" fill="white"/>
<path d="M126.145 318.022C126.145 318.307 127.186 318.878 128.376 319.448C129.566 319.875 130.608 319.59 130.608 318.878C130.608 318.022 129.566 317.452 128.376 317.452C127.186 317.452 126.145 317.737 126.145 318.022Z" fill="white"/>
<path d="M133.583 318.872C133.583 319.584 134.178 320.297 134.922 320.297C135.815 320.297 136.856 319.584 137.302 318.872C137.749 318.017 137.154 317.447 135.963 317.447C134.624 317.447 133.583 318.017 133.583 318.872Z" fill="white"/>
<path d="M145.485 207.716C145.485 208.428 146.229 209.141 146.973 209.141C147.866 209.141 148.461 208.428 148.461 207.716C148.461 206.86 147.866 206.29 146.973 206.29C146.229 206.29 145.485 206.86 145.485 207.716Z" fill="white"/>
<path d="M146.228 214.848C146.675 215.561 147.418 216.273 147.865 216.273C148.162 216.273 148.46 215.561 148.46 214.848C148.46 213.993 147.716 213.423 146.823 213.423C146.079 213.423 145.782 213.993 146.228 214.848Z" fill="white"/>
<path d="M145.485 249.051C145.485 249.764 146.229 250.477 147.122 250.477C147.866 250.477 148.163 249.764 147.717 249.051C147.271 248.196 146.527 247.626 146.08 247.626C145.783 247.626 145.485 248.196 145.485 249.051Z" fill="white"/>
<path d="M145.485 256.169C145.485 256.881 146.229 257.594 147.122 257.594C147.866 257.594 148.163 256.881 147.717 256.169C147.271 255.314 146.527 254.744 146.08 254.744C145.783 254.744 145.485 255.314 145.485 256.169Z" fill="white"/>
<path d="M145.485 263.294C145.485 264.006 146.229 264.719 146.973 264.719C147.866 264.719 148.461 264.006 148.461 263.294C148.461 262.439 147.866 261.869 146.973 261.869C146.229 261.869 145.485 262.439 145.485 263.294Z" fill="white"/>
<path d="M146.228 270.426C146.675 271.139 147.418 271.852 147.865 271.852C148.162 271.852 148.46 271.139 148.46 270.426C148.46 269.571 147.716 269.001 146.823 269.001C146.079 269.001 145.782 269.571 146.228 270.426Z" fill="white"/>
<path d="M145.485 297.497C145.485 298.209 146.229 298.922 147.122 298.922C147.866 298.922 148.163 298.209 147.717 297.497C147.271 296.642 146.527 296.072 146.08 296.072C145.783 296.072 145.485 296.642 145.485 297.497Z" fill="white"/>
<path d="M145.485 304.63C145.485 305.342 146.229 306.055 147.122 306.055C147.866 306.055 148.163 305.342 147.717 304.63C147.271 303.775 146.527 303.205 146.08 303.205C145.783 303.205 145.485 303.775 145.485 304.63Z" fill="white"/>
<path d="M145.485 311.747C145.485 312.459 146.229 313.172 147.122 313.172C147.866 313.172 148.163 312.459 147.717 311.747C147.271 310.892 146.527 310.322 146.08 310.322C145.783 310.322 145.485 310.892 145.485 311.747Z" fill="white"/>
<path d="M146.228 318.872C146.675 319.584 147.418 320.297 147.865 320.297C148.162 320.297 148.46 319.584 148.46 318.872C148.46 318.017 147.716 317.447 146.823 317.447C146.079 317.447 145.782 318.017 146.228 318.872Z" fill="white"/>
<path d="M211.69 207.716C211.244 208.428 211.392 209.141 212.285 209.141C213.029 209.141 214.219 208.428 214.665 207.716C215.112 206.86 214.963 206.29 214.07 206.29C213.327 206.29 212.136 206.86 211.69 207.716Z" fill="white"/>
<path d="M212.433 214.979C212.433 215.692 213.176 215.977 213.92 215.549C214.813 215.122 215.408 214.409 215.408 213.982C215.408 213.697 214.813 213.411 213.92 213.411C213.176 213.411 212.433 214.124 212.433 214.979Z" fill="white"/>
<path d="M212.135 235.797C213.177 236.224 214.516 236.082 214.962 235.654C215.557 235.227 214.664 234.799 213.028 234.941C211.391 234.941 210.945 235.369 212.135 235.797Z" fill="white"/>
<path d="M212.135 242.914C213.177 243.341 214.516 243.199 214.962 242.771C215.557 242.344 214.664 241.916 213.028 242.059C211.391 242.059 210.945 242.486 212.135 242.914Z" fill="white"/>
<path d="M212.135 250.039C213.177 250.466 214.516 250.324 214.962 249.896C215.557 249.469 214.664 249.041 213.028 249.184C211.391 249.184 210.945 249.611 212.135 250.039Z" fill="white"/>
<path d="M211.69 256.169C211.243 256.881 211.838 257.594 213.177 257.594C214.516 257.594 215.111 256.881 214.665 256.169C214.219 255.314 213.475 254.744 213.177 254.744C212.88 254.744 212.136 255.314 211.69 256.169Z" fill="white"/>
<path d="M212.433 263.44C212.433 264.153 213.176 264.438 213.92 264.01C214.813 263.583 215.408 262.87 215.408 262.442C215.408 262.157 214.813 261.872 213.92 261.872C213.176 261.872 212.433 262.585 212.433 263.44Z" fill="white"/>
<path d="M212.433 270.557C212.433 271.27 213.176 271.555 213.92 271.127C214.813 270.7 215.408 269.987 215.408 269.56C215.408 269.275 214.813 268.99 213.92 268.99C213.176 268.99 212.433 269.702 212.433 270.557Z" fill="white"/>
<path d="M212.135 284.242C213.177 284.669 214.516 284.527 214.962 284.099C215.557 283.672 214.664 283.244 213.028 283.387C211.391 283.387 210.945 283.814 212.135 284.242Z" fill="white"/>
<path d="M212.135 291.375C213.177 291.802 214.516 291.66 214.962 291.232C215.557 290.805 214.664 290.377 213.028 290.52C211.391 290.52 210.945 290.947 212.135 291.375Z" fill="white"/>
<path d="M212.135 298.492C213.177 298.919 214.516 298.777 214.962 298.349C215.557 297.922 214.664 297.494 213.028 297.637C211.391 297.637 210.945 298.064 212.135 298.492Z" fill="white"/>
<path d="M211.69 311.747C211.244 312.459 211.392 313.172 212.285 313.172C213.029 313.172 214.219 312.459 214.665 311.747C215.112 310.892 214.963 310.322 214.07 310.322C213.327 310.322 212.136 310.892 211.69 311.747Z" fill="white"/>
<path d="M212.433 319.018C212.433 319.731 213.176 320.016 213.92 319.588C214.813 319.161 215.408 318.448 215.408 318.021C215.408 317.736 214.813 317.451 213.92 317.451C213.176 317.451 212.433 318.163 212.433 319.018Z" fill="white"/>
<path d="M222.103 207.716C222.55 208.428 223.591 209.141 224.484 209.141C225.228 209.141 225.823 208.428 225.823 207.716C225.823 206.86 224.781 206.29 223.442 206.29C222.252 206.29 221.657 206.86 222.103 207.716Z" fill="white"/>
<path d="M230.286 207.862C230.286 208.574 231.03 208.859 231.774 208.432C232.667 208.004 233.262 207.292 233.262 206.864C233.262 206.579 232.667 206.294 231.774 206.294C231.03 206.294 230.286 207.007 230.286 207.862Z" fill="white"/>
<path d="M221.359 213.983C221.359 214.268 222.401 214.838 223.591 215.409C224.781 215.836 225.823 215.551 225.823 214.838C225.823 213.983 224.781 213.413 223.591 213.413C222.401 213.413 221.359 213.698 221.359 213.983Z" fill="white"/>
<path d="M230.286 214.979C230.286 215.692 231.03 215.977 231.774 215.549C232.667 215.122 233.262 214.409 233.262 213.982C233.262 213.697 232.667 213.411 231.774 213.411C231.03 213.411 230.286 214.124 230.286 214.979Z" fill="white"/>
<path d="M222.549 221.539C223.591 221.966 224.93 221.824 225.376 221.396C225.971 220.969 225.079 220.541 223.442 220.684C221.806 220.684 221.359 221.111 222.549 221.539Z" fill="white"/>
<path d="M222.549 228.664C223.591 229.091 224.93 228.949 225.376 228.521C225.971 228.094 225.079 227.666 223.442 227.809C221.806 227.809 221.359 228.236 222.549 228.664Z" fill="white"/>
<path d="M222.847 241.919C222.847 242.631 223.591 243.344 224.483 243.344C225.227 243.344 225.525 242.631 225.078 241.919C224.632 241.064 223.888 240.494 223.442 240.494C223.144 240.494 222.847 241.064 222.847 241.919Z" fill="white"/>
<path d="M230.286 241.919C228.352 243.059 228.501 243.344 230.733 243.344C232.072 243.344 233.262 242.631 233.262 241.919C233.262 240.209 233.113 240.209 230.286 241.919Z" fill="white"/>
<path d="M222.847 249.051C222.847 249.764 223.591 250.477 224.483 250.477C225.227 250.477 225.525 249.764 225.078 249.051C224.632 248.196 223.888 247.626 223.442 247.626C223.144 247.626 222.847 248.196 222.847 249.051Z" fill="white"/>
<path d="M230.286 249.051C228.352 250.192 228.501 250.477 230.733 250.477C232.072 250.477 233.262 249.764 233.262 249.051C233.262 247.341 233.113 247.341 230.286 249.051Z" fill="white"/>
<path d="M222.847 256.169C222.847 256.881 223.591 257.594 224.483 257.594C225.227 257.594 225.525 256.881 225.078 256.169C224.632 255.314 223.888 254.744 223.442 254.744C223.144 254.744 222.847 255.314 222.847 256.169Z" fill="white"/>
<path d="M230.286 256.169C230.286 256.881 231.03 257.594 231.774 257.594C232.667 257.594 233.262 256.881 233.262 256.169C233.262 255.314 232.667 254.744 231.774 254.744C231.03 254.744 230.286 255.314 230.286 256.169Z" fill="white"/>
<path d="M221.359 262.444C221.359 262.729 222.401 263.299 223.591 263.869C224.781 264.297 225.823 264.012 225.823 263.299C225.823 262.444 224.781 261.874 223.591 261.874C222.401 261.874 221.359 262.159 221.359 262.444Z" fill="white"/>
<path d="M230.286 263.294C230.286 264.006 231.03 264.719 231.774 264.719C232.667 264.719 233.262 264.006 233.262 263.294C233.262 262.439 232.667 261.869 231.774 261.869C231.03 261.869 230.286 262.439 230.286 263.294Z" fill="white"/>
<path d="M221.359 269.562C221.359 269.847 222.401 270.417 223.591 270.987C224.781 271.414 225.823 271.129 225.823 270.417C225.823 269.562 224.781 268.991 223.591 268.991C222.401 268.991 221.359 269.277 221.359 269.562Z" fill="white"/>
<path d="M230.286 270.417C230.286 271.129 231.328 271.414 232.518 270.987C233.708 270.417 234.749 269.847 234.749 269.562C234.749 269.277 233.708 268.991 232.518 268.991C231.328 268.991 230.286 269.562 230.286 270.417Z" fill="white"/>
<path d="M222.549 277.117C223.591 277.544 224.93 277.402 225.376 276.974C225.971 276.547 225.079 276.119 223.442 276.262C221.806 276.262 221.359 276.689 222.549 277.117Z" fill="white"/>
<path d="M229.989 291.375C231.03 291.802 232.369 291.66 232.816 291.232C233.411 290.805 232.518 290.377 230.881 290.52C229.245 290.52 228.799 290.947 229.989 291.375Z" fill="white"/>
<path d="M222.847 297.497C222.847 298.209 223.591 298.922 224.483 298.922C225.227 298.922 225.525 298.209 225.078 297.497C224.632 296.642 223.888 296.072 223.442 296.072C223.144 296.072 222.847 296.642 222.847 297.497Z" fill="white"/>
<path d="M230.286 297.497C228.352 298.637 228.501 298.922 230.733 298.922C232.072 298.922 233.262 298.209 233.262 297.497C233.262 295.787 233.113 295.787 230.286 297.497Z" fill="white"/>
<path d="M222.103 304.63C222.549 305.342 223.74 306.055 224.483 306.055C225.376 306.055 225.525 305.342 225.079 304.63C224.632 303.775 223.442 303.205 222.698 303.205C221.806 303.205 221.657 303.775 222.103 304.63Z" fill="white"/>
<path d="M231.03 304.63C230.584 305.342 230.881 306.055 231.625 306.055C232.518 306.055 233.262 305.342 233.262 304.63C233.262 303.775 232.964 303.205 232.667 303.205C232.22 303.205 231.476 303.775 231.03 304.63Z" fill="white"/>
<path d="M222.103 311.747C222.55 312.459 223.591 313.172 224.484 313.172C225.228 313.172 225.823 312.459 225.823 311.747C225.823 310.892 224.781 310.322 223.442 310.322C222.252 310.322 221.657 310.892 222.103 311.747Z" fill="white"/>
<path d="M230.286 311.747C230.286 312.459 231.03 313.172 231.774 313.172C232.667 313.172 233.262 312.459 233.262 311.747C233.262 310.892 232.667 310.322 231.774 310.322C231.03 310.322 230.286 310.892 230.286 311.747Z" fill="white"/>
<path d="M221.359 318.022C221.359 318.307 222.401 318.878 223.591 319.448C224.781 319.875 225.823 319.59 225.823 318.878C225.823 318.022 224.781 317.452 223.591 317.452C222.401 317.452 221.359 317.737 221.359 318.022Z" fill="white"/>
<path d="M230.286 318.878C230.286 319.59 231.328 319.875 232.518 319.448C233.708 318.878 234.749 318.307 234.749 318.022C234.749 317.737 233.708 317.452 232.518 317.452C231.328 317.452 230.286 318.022 230.286 318.878Z" fill="white"/>
<path d="M241.444 207.716C241.89 208.428 242.634 209.141 243.081 209.141C243.378 209.141 243.676 208.428 243.676 207.716C243.676 206.86 242.932 206.29 242.039 206.29C241.295 206.29 240.998 206.86 241.444 207.716Z" fill="white"/>
<path d="M241.444 214.848C241.89 215.561 242.634 216.273 243.081 216.273C243.378 216.273 243.676 215.561 243.676 214.848C243.676 213.993 242.932 213.423 242.039 213.423C241.295 213.423 240.998 213.993 241.444 214.848Z" fill="white"/>
<path d="M241.89 235.797C242.932 236.224 244.271 236.082 244.717 235.654C245.312 235.227 244.419 234.799 242.783 234.941C241.146 234.941 240.7 235.369 241.89 235.797Z" fill="white"/>
<path d="M241.89 242.914C242.932 243.341 244.271 243.199 244.717 242.771C245.312 242.344 244.419 241.916 242.783 242.059C241.146 242.059 240.7 242.486 241.89 242.914Z" fill="white"/>
<path d="M240.7 249.051C240.7 249.764 241.444 250.477 242.337 250.477C243.081 250.477 243.378 249.764 242.932 249.051C242.485 248.196 241.742 247.626 241.295 247.626C240.998 247.626 240.7 248.196 240.7 249.051Z" fill="white"/>
<path d="M241.444 256.169C241.89 256.881 242.634 257.594 243.081 257.594C243.378 257.594 243.676 256.881 243.676 256.169C243.676 255.314 242.932 254.744 242.039 254.744C241.295 254.744 240.998 255.314 241.444 256.169Z" fill="white"/>
<path d="M241.444 263.294C241.89 264.006 242.634 264.719 243.081 264.719C243.378 264.719 243.676 264.006 243.676 263.294C243.676 262.439 242.932 261.869 242.039 261.869C241.295 261.869 240.998 262.439 241.444 263.294Z" fill="white"/>
<path d="M241.444 270.426C241.89 271.139 242.634 271.852 243.081 271.852C243.378 271.852 243.676 271.139 243.676 270.426C243.676 269.571 242.932 269.001 242.039 269.001C241.295 269.001 240.998 269.571 241.444 270.426Z" fill="white"/>
<path d="M241.89 291.375C242.932 291.802 244.271 291.66 244.717 291.232C245.312 290.805 244.419 290.377 242.783 290.52C241.146 290.52 240.7 290.947 241.89 291.375Z" fill="white"/>
<path d="M241.89 298.492C242.932 298.919 244.271 298.777 244.717 298.349C245.312 297.922 244.419 297.494 242.783 297.637C241.146 297.637 240.7 298.064 241.89 298.492Z" fill="white"/>
<path d="M240.7 304.63C240.7 305.342 241.444 306.055 242.337 306.055C243.081 306.055 243.378 305.342 242.932 304.63C242.485 303.775 241.742 303.205 241.295 303.205C240.998 303.205 240.7 303.775 240.7 304.63Z" fill="white"/>
<path d="M241.444 311.747C241.89 312.459 242.634 313.172 243.081 313.172C243.378 313.172 243.676 312.459 243.676 311.747C243.676 310.892 242.932 310.322 242.039 310.322C241.295 310.322 240.998 310.892 241.444 311.747Z" fill="white"/>
<path d="M241.444 318.872C241.89 319.584 242.634 320.297 243.081 320.297C243.378 320.297 243.676 319.584 243.676 318.872C243.676 318.017 242.932 317.447 242.039 317.447C241.295 317.447 240.998 318.017 241.444 318.872Z" fill="white"/>
<path d="M166.016 232.942C167.801 233.228 170.777 233.228 172.711 232.942C174.496 232.657 173.008 232.372 169.289 232.372C165.57 232.372 164.082 232.657 166.016 232.942Z" fill="white"/>
<path d="M186.844 232.942C188.629 233.228 191.605 233.228 193.539 232.942C195.324 232.657 193.836 232.372 190.117 232.372C186.398 232.372 184.91 232.657 186.844 232.942Z" fill="white"/>
<path d="M167.801 318.164C167.801 320.159 168.545 321.727 169.289 321.727C170.181 321.727 170.776 320.159 170.776 318.164C170.776 316.169 170.181 314.601 169.289 314.601C168.545 314.601 167.801 316.169 167.801 318.164Z" fill="white"/>
<path d="M188.63 318.164C188.63 320.159 189.374 321.727 190.118 321.727C191.01 321.727 191.605 320.159 191.605 318.164C191.605 316.169 191.01 314.601 190.118 314.601C189.374 314.601 188.63 316.169 188.63 318.164Z" fill="white"/>
</svg>
