<svg width="61" height="61" viewBox="0 0 61 61" fill="none" xmlns="http://www.w3.org/2000/svg">
<path d="M11.8149 0.793056C8.88252 1.18699 6.5866 2.34608 4.37403 4.55819C2.22208 6.71728 1.12337 9.07333 0.774818 12.293C0.577808 14.1339 0.835436 17.9066 1.381 21.149C2.04022 25.0354 3.19197 28.8763 4.75289 32.4066L5.10903 33.202L7.5868 35.702L10.0646 38.202L25.1964 40.1793C23.8704 38.8687 5.26815 33.4975 5.29846 33.5808C5.32877 33.6642 5.63186 34.2778 5.97284 34.9445C9.30684 41.4293 13.8305 46.7626 19.915 51.3838C20.8016 52.0505 22.658 53.2777 24.0447 54.1035C25.5374 54.9974 28.3789 56.4292 28.1743 56.1868C28.0834 56.0732 28.1212 56.0883 28.2879 56.2398C28.5532 56.4747 29.8716 57.0732 31.2052 57.558C31.5841 57.6944 31.9932 57.8459 32.1145 57.8989C32.5009 58.0656 34.418 58.6716 35.4106 58.9444C39.3811 60.0504 43.6623 60.6641 47.4358 60.6641C50.6106 60.6641 53.1869 59.9216 55.4146 58.3535C56.1572 57.8307 57.021 57.0353 56.9528 56.9368C56.9301 56.8913 56.9452 56.8762 56.9831 56.8989C57.0892 56.9671 57.7712 56.2247 58.3546 55.4217C59.9913 53.1414 60.8248 50.3232 60.696 47.452C60.6127 45.7171 60.3096 44.7323 59.6276 44.0581C59.226 43.649 58.9457 43.5126 58.1652 43.3156C57.4681 43.1414 51.3608 41.7778 50.3757 41.5732C48.9512 41.2778 48.4738 41.1717 43.9881 40.1793C42.1847 39.7778 40.548 39.452 40.351 39.452C39.813 39.452 39.3281 39.649 38.8961 40.0353C38.5627 40.3384 38.4036 40.6035 37.5625 42.2853C37.0397 43.3308 36.5169 44.2778 36.4108 44.3914C36.1229 44.702 35.8273 44.7247 35.0317 44.4975C30.8188 43.2929 26.3936 40.1641 22.7944 35.8535C20.3773 32.9672 18.2177 29.4672 17.0811 26.6111C16.6644 25.5657 16.6265 25.4293 16.6947 25.2475C16.7326 25.1415 17.4373 24.7475 18.8542 24.0354C20.0817 23.4142 21.0895 22.8536 21.2865 22.6869C21.4608 22.5278 21.7033 22.2097 21.8169 21.9748C22.1731 21.2475 22.1579 21.1415 20.8698 15.3233C18.7936 5.94455 18.051 2.78547 17.7555 2.13396C17.6797 1.95972 17.4903 1.67941 17.3312 1.50517C16.7326 0.838508 16.0506 0.664269 14.0426 0.671844C13.2698 0.67942 12.2696 0.73245 11.8149 0.793056ZM23.59 37.8914C23.59 37.9066 23.5294 37.9672 23.4612 38.0202C23.34 38.1187 23.3324 38.1111 23.4309 37.9899C23.5294 37.8687 23.59 37.8308 23.59 37.8914ZM24.1962 52.1414C24.2947 52.2474 24.3553 52.3308 24.3326 52.3308C24.3174 52.3308 24.2189 52.2474 24.1204 52.1414C24.0219 52.0353 23.9613 51.952 23.984 51.952C23.9992 51.952 24.0977 52.0353 24.1962 52.1414ZM24.6887 52.6338C24.7645 52.7171 24.81 52.7853 24.7872 52.7853C24.7645 52.7853 24.6887 52.7171 24.613 52.6338C24.5372 52.5505 24.4917 52.4823 24.5145 52.4823C24.5372 52.4823 24.613 52.5505 24.6887 52.6338ZM25.3707 53.3156C25.4465 53.3989 25.4919 53.4671 25.4692 53.4671C25.4465 53.4671 25.3707 53.3989 25.2949 53.3156C25.2191 53.2323 25.1737 53.1641 25.1964 53.1641C25.2191 53.1641 25.2949 53.2323 25.3707 53.3156ZM25.9769 53.9217C26.0526 54.005 26.0981 54.0732 26.0754 54.0732C26.0526 54.0732 25.9769 54.005 25.9011 53.9217C25.8253 53.8383 25.7799 53.7701 25.8026 53.7701C25.8253 53.7701 25.9011 53.8383 25.9769 53.9217ZM26.5831 54.5277C26.6588 54.6111 26.7043 54.6792 26.6816 54.6792C26.6588 54.6792 26.5831 54.6111 26.5073 54.5277C26.4315 54.4444 26.386 54.3762 26.4088 54.3762C26.4315 54.3762 26.5073 54.4444 26.5831 54.5277ZM27.1892 55.1338C27.265 55.2171 27.3105 55.2853 27.2877 55.2853C27.265 55.2853 27.1892 55.2171 27.1135 55.1338C27.0377 55.0504 26.9922 54.9823 27.015 54.9823C27.0377 54.9823 27.1135 55.0504 27.1892 55.1338ZM27.7954 55.7398C27.8712 55.8232 27.9167 55.8914 27.8939 55.8914C27.8712 55.8914 27.7954 55.8232 27.7197 55.7398C27.6439 55.6565 27.5984 55.5883 27.6211 55.5883C27.6439 55.5883 27.7197 55.6565 27.7954 55.7398ZM56.3239 56.2474L56.8922 56.8383L56.3088 56.2701C55.9829 55.9595 55.7177 55.6944 55.7177 55.6868C55.7177 55.6262 55.8011 55.7095 56.3239 56.2474ZM32.9101 56.9065C32.9101 56.9217 32.8495 56.9823 32.7813 57.0353C32.66 57.1338 32.6525 57.1262 32.751 57.005C32.8495 56.8838 32.9101 56.8459 32.9101 56.9065ZM32.3039 57.5126C32.3039 57.5277 32.2433 57.5883 32.1751 57.6413C32.0539 57.7398 32.0463 57.7323 32.1448 57.611C32.2433 57.4898 32.3039 57.452 32.3039 57.5126Z" fill="white"/>
<path d="M31.8798 0.914842C31.4024 1.34666 31.4706 2.08908 32.0162 2.43756C32.1374 2.51332 32.6299 2.56635 33.7438 2.62696C37.4339 2.8315 40.5633 3.6118 43.761 5.11937C46.0796 6.21028 48.5119 7.86936 50.5275 9.73299L51.2094 10.3542L51.4746 10.1118L51.7398 9.86936L51.4898 10.1421L51.2322 10.4224L51.8005 11.0209C54.4071 13.8087 56.5969 17.6724 57.688 21.392C58.3094 23.5208 58.6352 25.4981 58.7337 27.8466C58.7943 29.2254 58.7943 29.2254 59.014 29.4526C59.1353 29.5738 59.3474 29.7178 59.4914 29.7632C59.749 29.8466 59.7566 29.839 60.2188 29.4072C60.6583 28.9829 60.6659 28.9754 60.3022 29.3541C59.9157 29.7708 59.9006 29.8466 60.2719 29.6269C60.6735 29.3844 60.7189 29.1723 60.6886 27.786C60.5447 22.5284 58.7488 17.1496 55.68 12.7481C55.0663 11.8693 53.8388 10.3391 53.1568 9.60421L52.6264 9.03603L52.1793 9.45269L51.7398 9.86936L52.1566 9.43754L52.5658 8.99815L52.346 8.7633C51.8384 8.233 50.1486 6.79361 49.2848 6.15725C45.0718 3.05877 40.2299 1.21787 35.0319 0.748176C34.5546 0.702721 33.7059 0.664843 33.1528 0.664843H32.1526L31.8798 0.914842ZM33.3649 0.914842C33.3649 0.929993 33.2892 1.00575 33.1982 1.08908L33.0239 1.23302L33.1679 1.05878C33.3043 0.89969 33.3649 0.854236 33.3649 0.914842ZM32.7587 1.5209C32.7587 1.53605 32.683 1.61181 32.592 1.69514L32.4178 1.83908L32.5617 1.66484C32.6981 1.50575 32.7587 1.46029 32.7587 1.5209ZM32.2283 2.0512C32.2283 2.06635 32.1526 2.14211 32.0616 2.22544L31.8874 2.36938L32.0313 2.19514C32.1677 2.03605 32.2283 1.9906 32.2283 2.0512Z" fill="white"/>
<path d="M32.0849 9.81834C31.8045 9.96985 31.5469 10.3714 31.5469 10.6517C31.5469 10.9471 31.759 11.3411 32.0015 11.485C32.1834 11.5986 32.4486 11.6365 33.2442 11.6744C37.0101 11.8562 40.3971 13.1365 43.2917 15.4623C44.6707 16.5683 45.7998 17.8032 46.7545 19.2274C48.4897 21.8183 49.4444 24.6743 49.6566 27.8713C49.7475 29.1516 49.8157 29.4168 50.1264 29.6213C50.581 29.9168 51.2781 29.7652 51.5054 29.3107C51.7403 28.8562 51.604 26.538 51.2402 24.8562C50.5204 21.5304 49.0201 18.6062 46.6863 15.9926C46.0422 15.2729 44.8677 14.1668 44.2994 13.7577C44.1706 13.6592 43.8069 13.4017 43.5038 13.182C40.8897 11.2729 37.4193 10.0305 33.9716 9.75773C32.6304 9.65167 32.3728 9.66682 32.0849 9.81834ZM50.5659 23.1289C50.7098 23.2728 50.8083 23.394 50.7856 23.394C50.7629 23.394 50.6341 23.2728 50.4901 23.1289C50.3461 22.985 50.2476 22.8637 50.2704 22.8637C50.2931 22.8637 50.4219 22.985 50.5659 23.1289Z" fill="white"/>
<path d="M32.0995 18.8735C31.6298 19.0857 31.4327 19.6766 31.6676 20.169C31.8495 20.5629 32.2208 20.7069 33.1755 20.7675C34.8653 20.866 36.6308 21.6084 37.9037 22.7523C38.1311 22.9569 38.3205 23.0705 38.3735 23.0402C38.4342 23.0099 38.4417 23.0175 38.4114 23.0781C38.3811 23.1235 38.4948 23.3281 38.6918 23.5629C39.8966 24.9947 40.6391 26.9569 40.6391 28.7068C40.6391 29.1765 40.8437 29.5402 41.1847 29.6841C41.7 29.8962 42.2228 29.722 42.4577 29.2523C42.685 28.7902 42.488 27.0023 42.0637 25.6993C41.1165 22.7523 38.8736 20.4266 35.9715 19.3811C34.6682 18.9114 32.6072 18.6387 32.0995 18.8735Z" fill="white"/>
</svg>
