<svg width="1914" height="1344" viewBox="0 0 1914 1344" fill="none" xmlns="http://www.w3.org/2000/svg">
<path d="M1421.61 9.86772C1409.34 34.4012 1400.01 75.7347 1400.01 106.135V122.935L1377.34 102.135C1356.81 83.2014 1325.61 61.3346 1319.21 61.3346C1317.61 61.3346 1318.41 63.468 1320.54 65.868C1330.67 77.3347 1365.61 123.468 1364.81 124.268C1364.27 124.535 1355.21 122.668 1344.54 119.735C1332.54 116.535 1317.07 109.602 1304.27 101.601C1246.41 65.3346 1163.21 32.0012 1094.14 17.8678C1036.01 5.60104 1017.87 4.00103 945.341 4.2677C886.141 4.2677 870.941 5.0677 841.608 10.1344C689.341 36.5345 562.408 102.401 458.674 209.602C423.474 245.869 406.408 267.202 377.608 310.136C292.808 437.07 253.875 589.87 267.475 740.804C271.475 785.605 274.141 794.938 280.008 783.738C282.675 778.938 282.675 768.805 280.008 734.138C262.141 508.003 362.141 289.602 548.274 149.335C612.274 101.068 696.008 60.5346 776.008 38.9345C922.141 0.00101143 1074.67 11.4677 1217.87 72.0013C1249.87 85.6014 1304.01 114.402 1304.01 117.868C1304.01 119.202 1298.67 120.002 1292.01 120.002C1276.01 120.002 1276.81 123.468 1294.14 127.735C1311.47 132.002 1349.34 149.868 1355.47 156.535C1359.74 161.602 1359.47 161.602 1345.87 159.735C1322.67 156.535 1290.41 157.068 1272.27 161.335C1246.14 167.468 1210.94 186.935 1186.67 208.269L1177.34 216.535L1192.01 214.935C1237.87 210.135 1312.81 207.469 1333.34 209.602L1356.01 212.002L1333.07 220.535C1290.14 237.069 1261.87 260.269 1246.41 292.269C1232.81 320.802 1234.14 322.136 1258.14 304.002C1278.67 288.269 1335.21 257.069 1338.14 260.002C1338.94 260.802 1336.54 264.802 1332.81 268.802C1303.21 300.269 1287.74 353.336 1295.74 396.003C1299.47 416.27 1302.67 419.203 1306.67 406.136C1313.61 385.336 1335.47 338.936 1347.74 320.269C1354.67 309.336 1360.54 301.069 1361.07 301.602C1361.61 302.136 1360.81 312.269 1359.21 324.003C1354.14 364.003 1364.01 409.07 1385.07 442.67L1393.87 456.536L1395.47 423.47C1397.34 386.403 1406.94 335.736 1418.94 300.002C1426.94 276.536 1432.01 266.669 1432.01 275.202C1432.01 287.202 1446.14 457.87 1453.34 530.67C1464.81 649.871 1466.94 680.271 1466.14 711.471L1465.34 739.204L1406.67 651.737C1357.07 577.87 1309.34 509.07 1301.34 500.537C1300.27 499.203 1287.74 514.403 1273.34 533.87C1258.94 553.337 1237.61 582.137 1225.87 598.137L1204.81 626.671L1196.54 615.471C1192.01 609.071 1171.47 580.004 1150.94 550.67C1118.94 504.803 1009.07 349.069 963.207 284.536C955.207 273.336 947.741 264.002 946.941 264.002C944.807 264.002 873.608 360.003 801.341 460.003C770.408 502.403 730.141 557.604 711.741 582.67C693.341 607.47 671.208 637.871 662.674 650.137C650.141 667.471 646.408 671.471 643.741 668.804C642.141 666.937 622.141 638.404 599.741 605.337C536.008 511.737 524.541 494.937 517.874 486.937C512.008 479.203 512.008 479.203 506.408 484.27C503.208 486.937 488.541 506.67 473.608 528.003C405.341 624.804 374.141 668.804 251.741 840.005C179.741 940.539 113.341 1033.34 103.741 1046.67C81.0747 1078.41 71.4748 1093.34 73.8748 1093.34C75.2081 1093.34 111.475 1081.87 154.675 1067.74C220.008 1046.67 259.208 1035.47 302.675 1025.87C306.675 1025.07 306.141 1024.54 300.808 1024.27C291.741 1024.01 291.741 1023.74 298.941 1006.41L304.808 992.539L352.541 990.672C399.208 988.806 400.275 988.539 404.541 982.406C406.941 978.672 408.275 975.206 407.475 974.672C406.675 973.872 386.141 972.539 361.875 971.472C337.341 970.672 317.341 968.806 317.341 967.472C317.341 961.339 328.541 944.005 332.808 943.739C434.674 939.739 434.674 939.739 440.808 933.872C446.408 928.005 446.408 928.005 441.074 928.005C429.074 928.005 337.341 922.139 336.541 921.339C336.008 920.805 337.875 915.205 340.808 908.539L346.141 896.805L373.608 894.938C388.808 894.138 416.541 892.805 435.208 891.738C462.674 890.405 469.874 889.072 473.341 885.338C477.341 880.805 476.274 880.538 455.474 878.938C443.208 878.138 416.275 876.538 395.208 875.738C368.808 874.405 357.341 873.072 358.141 870.938C358.675 869.338 360.808 863.738 362.675 858.405L366.141 848.805L406.141 846.938C428.274 846.138 457.341 845.338 470.941 845.338C516.808 845.338 522.941 835.472 478.408 833.338C464.008 832.805 435.741 831.472 416.008 830.672C396.275 829.605 379.208 828.272 378.141 827.738C376.541 826.672 384.008 807.205 387.475 803.471C388.541 802.671 421.341 801.071 460.808 800.005C526.941 798.138 551.474 795.471 537.074 791.205C534.408 790.405 502.674 788.271 466.674 786.405C430.674 784.805 400.541 782.405 399.475 781.605C398.141 780.538 399.208 774.671 401.875 768.538L406.141 757.338H435.741C472.541 757.071 552.808 752.805 565.074 750.404C584.808 746.138 562.674 743.471 490.941 740.804C450.408 739.204 417.075 737.871 416.808 737.338C416.275 737.071 417.874 731.471 420.274 724.804L424.274 712.804L478.141 710.938C527.741 709.071 578.408 705.071 581.074 702.404C584.008 699.738 575.474 698.938 511.208 696.271C473.341 694.671 440.808 692.538 438.674 691.471C435.474 689.604 435.741 687.471 439.741 678.404L444.808 667.471L478.941 665.604C525.341 663.204 568.274 658.937 572.808 656.271C577.874 653.337 560.541 651.204 504.008 647.737C478.408 646.137 456.808 644.271 456.274 643.737C455.741 643.204 457.341 637.604 459.741 631.204L464.274 619.471L498.408 617.604C517.341 616.537 536.274 614.671 540.541 613.604C547.208 611.737 545.608 610.937 528.008 607.204C517.074 604.537 500.541 601.87 491.208 601.07C472.808 598.937 473.341 599.737 481.608 579.47C485.074 571.47 486.408 570.67 498.141 570.404C505.074 570.137 514.408 569.07 518.674 568.27L526.674 566.404L516.008 563.204C510.141 561.337 502.408 560.004 498.941 560.004C493.608 560.004 493.074 559.204 494.674 552.804C497.874 539.204 512.808 506.67 514.941 508.27C516.808 509.337 594.674 621.604 629.074 672.804L637.874 685.338L625.074 703.471C618.141 713.338 582.408 763.205 545.341 814.671C445.341 953.872 410.141 1003.74 408.808 1007.21C407.475 1010.41 406.675 1010.67 461.341 1004.01C479.741 1001.87 520.541 998.672 552.008 997.339C604.541 994.672 609.608 993.872 613.608 989.072C615.741 986.139 627.208 964.539 638.674 941.605L659.474 899.472L695.474 897.605C715.208 896.805 750.941 896.005 774.408 895.738C836.808 895.472 814.941 891.472 735.474 888.805C699.208 887.472 668.808 885.605 667.741 884.805C665.608 882.405 686.674 838.672 693.341 832.005C697.874 827.472 703.208 826.938 752.541 826.938C782.408 826.672 817.074 825.872 830.141 824.805C854.408 823.205 857.608 824.538 848.008 833.338C841.074 839.472 837.874 855.738 842.941 858.938C845.074 860.538 850.408 861.072 854.941 860.272C863.474 859.205 863.474 859.205 867.741 876.538C875.207 906.139 885.874 921.605 906.141 931.739C914.407 936.005 914.674 936.539 914.674 954.139C914.674 976.006 911.207 988.806 901.074 1005.34C896.807 1012.27 893.341 1020.01 893.341 1022.41C893.341 1026.14 891.474 1026.67 882.141 1025.34C842.408 1020.01 719.474 1012.81 649.341 1011.47C462.941 1008.01 317.075 1028.81 152.008 1082.14C124.808 1090.94 80.5414 1104.54 53.3414 1112.01C26.1415 1119.74 2.14147 1126.94 0.00813704 1128.27C-2.12519 1129.61 415.475 1130.41 954.674 1130.41H1913.34L1885.34 1121.07C1770.41 1083.47 1732.54 1076.81 1558.41 1065.07C1521.87 1062.41 1491.74 1060.27 1491.21 1060.01C1490.41 1059.21 1496.27 1006.94 1497.34 1005.87C1497.61 1005.34 1508.81 1010.94 1522.14 1017.87C1542.14 1028.54 1546.94 1030.14 1549.87 1027.21C1554.41 1022.41 1546.67 1016.01 1519.21 1002.41L1498.67 992.006L1500.54 947.205C1501.61 922.672 1502.41 883.205 1502.41 859.472C1502.67 835.472 1503.21 816.005 1504.01 816.005C1505.34 816.005 1560.01 895.472 1585.61 934.405L1596.01 950.139L1579.21 998.406C1570.14 1025.07 1562.41 1047.74 1561.87 1049.34C1561.61 1050.94 1568.81 1052.01 1579.74 1052.01H1598.41L1608.54 1022.67C1614.14 1006.41 1618.67 990.406 1618.67 987.206C1618.67 983.472 1620.01 981.339 1621.87 981.872C1623.47 982.406 1637.07 1000.27 1652.01 1021.34C1674.94 1054.14 1680.54 1060.27 1687.47 1061.61C1692.27 1062.67 1696.01 1062.41 1696.01 1061.34C1696.01 1060.27 1688.81 1049.34 1680.27 1037.07C1671.47 1024.81 1656.01 1002.41 1645.61 987.472L1626.67 960.539L1633.07 932.805C1661.07 813.605 1673.87 701.871 1677.07 541.337L1678.67 462.67L1684.54 481.337C1693.34 509.337 1696.54 531.47 1696.81 564.537C1697.34 598.404 1698.94 599.47 1711.74 572.27C1720.81 553.604 1726.67 524.27 1724.54 509.07C1720.81 481.87 1736.54 518.937 1744.27 556.004C1746.94 569.07 1749.34 586.937 1749.34 595.204C1749.34 603.737 1750.41 610.671 1751.74 610.671C1754.94 610.671 1761.87 592.537 1766.67 572.27C1772.27 548.804 1771.74 521.337 1765.07 500.003C1762.14 490.137 1760.01 481.603 1760.81 481.07C1762.41 479.203 1789.34 511.203 1802.14 530.403L1813.87 548.004L1812.01 529.603C1808.54 494.937 1793.34 464.27 1769.61 443.736C1758.67 434.136 1758.67 434.136 1766.67 436.003C1794.41 442.403 1876.01 458.403 1876.81 457.603C1878.41 455.736 1850.94 433.336 1836.54 424.536C1818.67 413.603 1794.67 405.336 1776.81 403.47C1769.07 402.67 1762.67 401.07 1762.67 400.27C1762.67 399.47 1773.07 394.403 1786.14 389.603L1809.34 380.269L1800.01 378.136C1788.54 375.469 1760.01 377.869 1746.41 382.936C1740.54 384.803 1736.01 385.336 1736.01 384.269C1736.01 382.936 1746.41 372.269 1758.94 360.003C1771.47 348.003 1781.34 337.603 1780.81 337.069C1777.34 333.603 1743.74 347.736 1728.81 358.936C1724.27 362.403 1719.74 365.336 1718.94 365.336C1718.14 365.336 1717.34 356.536 1717.34 345.869C1717.07 324.803 1710.94 285.869 1707.21 282.136C1704.27 279.202 1689.34 309.602 1683.47 331.203C1681.07 340.536 1678.67 348.536 1678.41 349.069C1677.87 349.603 1674.14 345.869 1670.14 341.069C1656.54 324.269 1625.07 296.802 1622.41 299.469C1621.87 299.736 1628.27 313.336 1636.01 329.336C1644.01 345.603 1650.67 360.269 1650.67 362.136C1650.67 364.269 1646.67 363.469 1637.87 358.936C1630.94 355.469 1618.94 350.403 1611.21 348.003C1597.87 343.469 1597.34 342.936 1597.34 333.603C1597.34 319.202 1590.14 292.269 1582.41 276.536C1572.01 256.002 1552.54 238.935 1521.34 223.735L1494.67 210.402L1546.67 211.735C1591.74 212.802 1630.41 216.802 1660.01 222.935L1668.01 224.535L1662.67 218.669C1652.27 207.202 1624.81 186.935 1605.07 176.268C1580.54 163.202 1561.07 157.602 1532.81 155.202L1510.67 153.335L1536.01 139.468C1572.81 119.202 1572.81 119.202 1548.54 121.068C1530.67 122.402 1500.01 130.668 1478.94 140.002C1474.14 142.135 1504.01 101.868 1533.61 66.668C1542.41 56.2679 1548.27 48.0012 1547.21 48.0012C1539.21 48.0012 1480.54 88.0014 1465.61 103.735C1461.07 108.268 1456.81 112.002 1455.47 112.002C1454.41 112.002 1453.34 104.001 1453.34 93.8681C1453.34 72.0013 1445.07 33.6012 1436.27 14.4011C1432.54 6.40104 1429.07 0.00101143 1428.27 0.00101143C1427.47 0.00101143 1424.54 4.53437 1421.61 9.86772ZM1541.61 286.136C1554.41 297.336 1571.74 314.402 1580.01 324.536C1594.67 341.603 1595.21 342.669 1589.34 344.003C1583.74 345.336 1584.01 345.869 1593.61 352.536C1606.41 361.336 1629.87 385.336 1623.47 383.203C1600.54 375.203 1563.74 380.269 1540.54 394.67C1530.14 401.07 1528.01 401.87 1529.07 398.136C1535.21 376.803 1536.81 366.403 1536.54 346.669C1536.27 320.002 1530.41 300.536 1514.67 275.202C1508.81 265.869 1504.01 257.869 1504.01 257.069C1504.01 254.669 1517.87 265.602 1541.61 286.136ZM1469.87 316.802C1488.81 356.536 1501.34 401.603 1501.34 429.87C1501.34 435.203 1502.41 440.27 1503.74 441.07C1504.81 441.87 1509.87 435.47 1514.94 426.67C1524.01 410.936 1524.01 410.936 1536.27 410.67C1552.27 410.67 1598.94 415.47 1609.34 418.136L1617.34 420.27L1602.67 427.203C1576.27 439.203 1551.21 468.003 1542.67 495.737C1541.07 501.337 1542.14 500.803 1554.94 491.203C1569.61 480.537 1600.01 464.003 1605.61 464.003C1607.21 464.003 1604.27 468.803 1599.21 474.67C1586.14 488.803 1577.07 507.737 1573.61 526.937C1570.67 543.47 1572.54 565.07 1577.87 574.67C1580.81 579.47 1581.61 578.404 1588.01 564.004C1596.81 543.737 1613.87 514.67 1616.54 514.67C1617.61 514.67 1618.67 518.67 1618.67 523.47C1618.67 534.403 1627.74 561.87 1634.41 570.404C1639.21 576.537 1639.21 576.537 1640.81 552.537C1642.41 530.137 1656.27 477.337 1660.54 477.337C1662.94 477.337 1659.21 611.471 1656.01 641.337C1650.94 688.271 1640.27 757.338 1631.74 800.005C1623.21 842.672 1604.01 920.805 1600.54 926.939C1599.21 929.605 1587.47 914.139 1564.27 879.472C1545.34 851.205 1524.01 819.738 1516.54 809.871C1504.81 793.605 1503.21 789.871 1501.07 772.538C1500.01 761.871 1498.94 741.871 1498.67 727.738C1498.67 693.871 1492.27 629.604 1481.34 548.004C1476.27 511.203 1468.54 445.87 1464.01 402.67C1459.47 359.469 1454.67 316.269 1453.34 306.669C1452.01 297.069 1450.67 288.002 1450.94 286.669C1450.94 281.336 1459.47 295.202 1469.87 316.802ZM993.074 349.336C1260.01 728.804 1342.94 847.205 1396.01 925.072C1419.47 959.205 1429.61 972.006 1435.21 973.872C1444.54 977.072 1444.54 978.406 1434.94 1022.67C1427.74 1055.74 1427.21 1057.34 1421.07 1057.07C1397.61 1055.74 1261.87 1050.67 1220.01 1049.34C1113.34 1046.14 991.741 1037.61 911.207 1027.74L898.674 1026.14L906.674 1017.07C919.207 1002.67 925.341 988.539 925.607 972.806C925.607 965.072 926.674 956.272 928.007 953.339C929.874 948.539 930.407 948.539 933.341 956.005C940.807 974.672 943.474 983.739 946.407 1001.34C949.874 1022.14 952.541 1028.27 957.074 1025.61C961.607 1022.67 960.541 1006.67 953.874 976.539C950.407 961.605 948.007 949.339 948.541 949.339C949.074 949.339 954.141 951.739 960.007 954.672C976.007 962.939 986.674 961.605 997.341 950.672C1002.41 945.605 1007.74 941.339 1009.34 941.339C1010.94 941.339 1014.41 945.872 1017.07 951.205C1019.74 956.805 1026.41 969.339 1032.27 978.939L1042.67 996.539L1034.94 1014.14C1026.67 1032.81 1027.74 1039.21 1037.87 1030.14C1044.27 1024.54 1056.01 1001.07 1056.01 993.606C1056.01 990.406 1057.34 989.339 1060.27 990.406C1062.67 991.206 1065.34 992.006 1066.41 992.006C1067.74 992.006 1069.34 1000.81 1070.41 1011.21C1073.61 1045.07 1082.67 1042.41 1082.67 1007.47V986.939L1072.81 979.472C1067.21 975.472 1061.87 970.939 1060.81 969.339C1058.14 965.872 1058.41 949.339 1061.34 942.672C1063.21 937.872 1063.74 937.872 1065.34 941.872C1067.47 946.939 1075.74 953.072 1084.54 955.739C1090.14 957.605 1089.87 956.805 1082.41 944.805C1077.87 937.872 1070.41 925.339 1065.61 917.339C1060.81 909.072 1051.74 898.672 1044.27 892.805C1030.14 882.405 1025.61 875.738 1020.01 857.338C1018.14 850.938 1014.14 842.672 1011.47 838.938C1008.54 835.205 1002.67 823.205 998.407 812.005C990.407 790.671 981.874 778.671 974.941 778.671C969.341 778.671 961.607 790.938 964.274 795.205C965.607 797.071 966.674 806.671 967.207 816.271C967.741 833.072 967.474 834.405 960.541 838.672C956.541 841.338 943.741 853.605 931.741 865.872C907.207 892.005 903.207 892.805 894.141 874.672C885.874 858.938 886.141 851.205 894.674 849.072C898.407 848.272 901.341 846.405 901.341 845.338C901.341 844.272 896.541 838.938 890.674 833.605C882.674 826.672 877.607 824.005 871.208 824.271C866.674 824.271 848.808 823.205 832.008 821.605C815.208 820.005 778.674 818.138 751.208 817.071C723.741 816.005 701.608 814.405 701.874 813.338C702.408 812.271 707.741 800.005 714.141 786.138L725.874 760.805L775.474 759.205C802.941 758.138 845.874 757.071 870.674 757.071C962.407 756.271 957.074 753.338 860.008 751.204C777.341 749.338 736.274 747.471 734.141 745.604C732.274 744.004 757.608 696.538 761.074 695.204C763.474 694.404 805.074 693.338 853.874 692.804C902.674 692.538 962.407 691.738 986.674 690.938C1026.67 689.338 1022.14 689.071 936.007 687.204C884.007 686.138 824.808 684.538 804.541 683.471L767.741 681.871L769.074 675.737C770.141 672.271 774.941 660.537 780.008 649.337L789.074 629.337L871.208 629.071C916.274 628.804 972.541 628.004 996.007 626.937L1038.67 625.337L973.341 623.471C821.341 618.671 797.341 617.604 797.341 615.737C797.341 614.404 801.874 603.47 807.741 591.204L817.874 568.804L857.608 566.937C879.474 566.137 926.674 565.337 962.674 565.07C998.674 565.07 1029.87 564.004 1032.01 562.67C1034.67 561.07 1024.81 560.004 1004.01 560.004C966.407 560.004 828.541 554.937 827.208 553.604C826.674 553.07 831.741 541.87 838.408 528.803L850.408 504.803L900.541 503.203C928.007 502.137 967.474 501.07 988.007 501.07C1045.07 500.537 1011.47 497.07 926.674 494.67C875.741 493.337 856.008 491.737 856.808 489.603C857.608 488.003 862.674 476.803 868.008 464.536L878.141 442.67L917.074 442.403C938.407 442.136 968.007 441.336 982.674 440.27L1009.34 438.67L972.007 436.536C951.474 435.47 923.474 433.87 909.874 432.803C881.607 430.936 882.941 433.336 896.274 404.003L904.007 386.669H933.341C949.607 386.669 962.674 385.603 962.674 384.269C962.674 382.936 951.474 381.336 937.607 380.803C923.741 380.536 911.741 379.203 910.941 378.403C909.074 376.536 926.674 332.803 940.274 305.869L949.607 287.469L954.141 293.602C956.541 297.069 973.874 322.136 993.074 349.336ZM1333.07 565.337C1345.87 583.737 1381.34 635.737 1411.74 680.804L1466.67 762.938V788.271C1466.67 830.405 1451.47 957.605 1445.61 963.472C1441.61 967.472 1433.34 960.005 1414.94 934.939C1396.01 909.339 1384.81 891.472 1386.94 889.605C1387.47 889.072 1401.87 886.672 1418.67 884.538L1449.34 880.538L1413.07 880.272L1377.07 880.005L1361.34 857.338C1352.81 844.805 1346.67 833.872 1347.47 833.072C1348.27 832.005 1360.54 830.672 1374.41 829.605C1388.54 828.538 1400.81 826.672 1401.87 825.872C1402.67 824.805 1390.94 824.005 1375.74 824.005C1360.54 824.005 1345.34 823.205 1341.87 822.405C1338.14 821.338 1330.14 812.005 1321.07 798.138C1312.81 785.871 1306.41 775.471 1306.94 774.938C1308.54 773.605 1354.14 768.005 1368.27 767.471C1374.67 767.205 1361.34 766.138 1338.67 765.338L1297.34 764.005L1284.27 744.804C1277.07 734.138 1271.74 724.804 1272.27 724.271C1273.07 723.471 1289.61 721.604 1309.34 720.004C1329.07 718.404 1345.61 716.538 1346.41 716.004C1346.94 715.204 1329.07 714.671 1306.14 714.671H1264.81L1257.07 704.538C1230.14 670.404 1230.94 669.604 1293.87 664.004L1342.67 659.471L1295.47 658.937C1269.34 658.937 1248.01 657.871 1248.01 656.537C1248.27 655.471 1251.47 646.404 1255.47 636.004C1263.74 615.204 1258.41 617.871 1302.67 611.204C1318.67 608.804 1318.67 608.804 1292.27 608.27C1272.54 608.004 1266.41 607.204 1267.47 604.537C1282.67 566.137 1283.21 565.337 1290.41 565.07C1296.81 564.537 1296.81 564.537 1291.21 563.47C1287.74 562.67 1285.34 560.804 1286.14 559.204C1286.67 557.337 1289.87 547.737 1293.34 537.604L1299.47 519.203L1304.27 525.603C1307.21 529.07 1320.01 546.937 1333.07 565.337Z" fill="white"/>
<path d="M1047.47 564.533C1049.34 565.333 1051.74 565.066 1052.54 564.266C1053.6 563.466 1052 562.666 1049.07 562.933C1046.14 562.933 1045.34 563.733 1047.47 564.533Z" fill="white"/>
<path d="M1092.28 830.139C1079.48 837.339 1078.14 840.539 1085.88 844.006C1090.14 845.873 1092.28 849.339 1092.81 855.206C1093.61 863.473 1094.41 864.006 1104.01 864.006C1114.41 864.006 1114.41 864.006 1116.28 876.539C1121.08 909.873 1137.61 928.006 1163.74 928.006C1175.48 928.006 1175.74 928.273 1177.88 937.873C1181.61 954.94 1179.21 984.006 1172.54 1012.01C1165.61 1039.47 1165.61 1043.47 1172.01 1040.81C1176.01 1039.47 1183.48 1018.41 1191.74 983.74C1196.54 964.54 1196.54 964.273 1199.74 971.74C1201.34 976.006 1204.28 992.807 1206.41 1009.34C1209.88 1039.47 1211.74 1046.67 1216.28 1044.01C1219.74 1041.61 1219.21 1019.21 1214.68 986.673C1212.54 971.206 1210.68 957.073 1210.68 955.206C1210.68 953.34 1215.48 955.473 1221.88 960.006C1236.81 970.94 1247.74 970.14 1251.74 958.14C1256.81 943.473 1260.81 941.873 1262.68 953.606C1263.48 959.473 1267.74 971.473 1272.01 980.54L1279.74 996.807L1271.74 1008.81C1267.48 1015.21 1259.21 1026.14 1253.08 1033.07L1242.14 1045.34H1249.34C1254.94 1045.34 1261.61 1040.01 1278.94 1021.87C1295.48 1004.54 1301.88 999.473 1303.48 1002.14C1304.81 1004.27 1306.68 1014.41 1307.74 1024.81C1309.61 1044.81 1312.54 1051.21 1317.61 1046.14C1319.74 1044.01 1320.28 1033.87 1319.48 1015.47C1318.41 990.94 1317.34 986.407 1309.88 972.006C1302.94 958.94 1301.61 954.14 1302.94 945.873C1305.08 933.606 1310.68 933.073 1316.81 944.273C1332.54 973.073 1343.74 984.006 1357.34 984.006C1363.48 984.006 1364.54 980.006 1358.94 977.873C1357.08 977.073 1349.88 965.073 1343.21 951.206C1333.61 931.206 1328.81 924.273 1319.48 917.606C1313.34 912.806 1303.74 903.739 1298.68 897.339C1293.61 890.673 1284.54 882.939 1278.41 879.739C1272.54 876.539 1265.88 871.206 1263.74 868.006C1261.61 864.806 1257.34 857.873 1253.88 852.539C1250.41 847.473 1242.68 838.939 1236.54 833.872C1227.48 826.406 1222.94 824.539 1212.81 824.539C1200.28 824.272 1200.01 824.272 1197.34 834.406C1191.74 855.473 1160.54 890.139 1150.94 886.406C1146.68 884.806 1142.14 875.473 1140.01 863.206C1138.68 856.273 1139.21 853.606 1142.41 852.539C1149.34 849.873 1147.21 843.473 1136.81 834.939C1128.81 828.272 1125.08 826.939 1118.41 828.272C1113.34 829.072 1109.08 828.539 1108.28 826.939C1105.61 822.939 1104.28 823.206 1092.28 830.139Z" fill="white"/>
<path d="M917.344 94.9273C912.277 100.794 880.81 118.927 866.144 124.527C858.944 126.927 853.344 130.127 853.344 131.194C853.344 133.328 856.277 132.794 895.744 125.061L921.077 119.994L937.077 137.594L953.077 155.461L969.61 137.594L985.877 119.461L1012.28 124.794C1026.94 127.727 1042.41 130.927 1046.94 131.994C1051.21 132.794 1043.74 127.727 1030.41 120.794C1017.08 113.594 1001.61 104.527 996.544 100.527C991.21 96.5273 985.61 93.3273 983.744 93.3273C981.61 93.3273 974.41 98.9273 967.477 105.861L954.944 118.394L940.277 104.527C924.277 89.3273 922.41 88.5273 917.344 94.9273Z" fill="white"/>
<path d="M722.672 255.185C722.672 256.251 728.805 262.918 736.539 269.585L750.405 281.852L765.072 269.852C773.338 263.185 780.272 257.051 780.805 255.718C781.872 253.585 764.005 257.851 756.805 261.585C754.139 262.918 749.072 262.651 743.472 260.251C729.339 254.385 722.672 252.785 722.672 255.185Z" fill="white"/>
<path d="M634.671 307.992L620.004 322.659L607.471 308.792L594.938 294.659L586.138 299.725C581.338 302.659 567.204 310.125 554.671 316.525C530.404 328.792 532.004 330.125 564.271 323.992C587.738 319.459 585.871 318.659 607.204 341.325L621.071 355.992L636.538 338.925L652.271 321.859L671.471 323.192C689.871 324.525 696.804 322.392 685.071 318.659C682.138 317.592 673.071 311.459 665.071 305.059C657.338 298.659 650.404 293.325 649.871 293.325C649.604 293.325 642.671 299.992 634.671 307.992Z" fill="white"/>
<path d="M1149.61 371.724C1171.21 389.058 1171.21 389.058 1188.54 375.724C1206.14 362.658 1202.94 358.124 1182.94 367.724L1171.47 373.324L1159.74 367.991C1140.81 359.458 1136.01 361.324 1149.61 371.724Z" fill="white"/>
<path d="M389.344 424.797C389.344 426.397 420.01 450.664 422.144 450.664C423.21 450.664 458.41 427.464 460.81 425.331C461.077 425.064 455.21 425.331 447.477 426.131C438.944 426.664 431.477 429.064 428.277 431.997C423.477 436.797 422.944 436.797 413.61 431.997C403.21 426.664 389.344 422.664 389.344 424.797Z" fill="white"/>
<path d="M152.806 1196.27C152.006 1198.4 152.539 1201.6 153.872 1202.94C157.339 1206.4 1752.27 1206.14 1755.74 1202.67C1757.34 1201.07 1756.8 1198.67 1754.67 1196C1751.74 1192.54 1669.07 1192 952.805 1192C230.405 1192 154.406 1192.27 152.806 1196.27Z" fill="white"/>
<path d="M390.41 1267.19C384.01 1277.59 375.476 1277.33 951.209 1277.33C1455.74 1277.33 1504.28 1277.06 1505.88 1273.06C1506.68 1270.66 1505.88 1267.73 1503.74 1266.39C1497.88 1262.66 392.81 1263.19 390.41 1267.19Z" fill="white"/>
<path d="M615.212 1333.6C611.479 1335.73 610.945 1337.33 613.612 1340.27C616.279 1343.47 665.612 1344 952.545 1344C1257.88 1344 1288.28 1343.73 1289.88 1339.73C1290.68 1337.33 1289.88 1334.4 1287.74 1333.07C1282.14 1329.6 621.345 1330.13 615.212 1333.6Z" fill="white"/>
</svg>
